<svg id="splitsvg" version="1.1" xmlns="http://www.w3.org/2000/svg" xmlns:xlink="http://www.w3.org/1999/xlink" width="1380" height="860"><g id="svgg"><path id="path0" d="M177.697 79.140 C 172.053 80.766,171.072 87.893,175.869 92.425 C 189.356 105.172,210.550 105.167,224.131 92.414 C 229.834 87.059,227.375 79.006,220.037 79.002 C 217.131 79.000,216.778 79.171,212.202 82.802 C 210.361 84.262,208.478 85.160,204.772 86.344 C 199.323 88.084,191.300 86.014,186.122 81.533 C 183.198 79.001,180.670 78.283,177.697 79.140 M294.554 79.565 C 289.381 81.914,288.906 88.440,293.597 92.714 C 305.928 103.952,325.673 104.978,338.800 95.063 C 341.739 92.843,344.400 90.038,344.400 89.160 C 344.400 88.768,344.580 88.336,344.800 88.200 C 346.132 87.377,344.645 82.705,342.423 80.733 C 339.330 77.986,335.730 78.171,331.878 81.274 C 322.850 88.548,312.070 88.747,304.113 81.786 C 300.629 78.739,297.814 78.085,294.554 79.565 M131.400 118.198 C 131.180 118.295,129.020 118.566,126.600 118.799 C 124.180 119.032,121.554 119.324,120.765 119.448 C 119.749 119.607,119.143 119.486,118.690 119.033 C 118.298 118.641,117.955 118.549,117.802 118.797 C 117.665 119.019,116.663 119.200,115.576 119.200 C 114.489 119.200,113.600 119.380,113.600 119.600 C 113.600 119.820,112.801 120.000,111.824 120.000 C 110.847 120.000,109.936 120.180,109.800 120.400 C 109.664 120.620,108.933 120.800,108.176 120.800 C 107.419 120.800,106.800 120.980,106.800 121.200 C 106.800 121.420,106.080 121.600,105.200 121.600 C 104.320 121.600,103.600 121.780,103.600 122.000 C 103.600 122.220,102.880 122.400,102.000 122.400 C 101.120 122.400,100.400 122.580,100.400 122.800 C 100.400 123.020,99.860 123.200,99.200 123.200 C 98.540 123.200,98.000 123.380,98.000 123.600 C 98.000 123.820,97.460 124.000,96.800 124.000 C 96.140 124.000,95.600 124.180,95.600 124.400 C 95.600 124.620,95.294 124.800,94.920 124.800 C 93.838 124.800,89.600 126.145,89.600 126.489 C 89.600 126.660,89.161 126.800,88.624 126.800 C 88.087 126.800,87.536 126.980,87.400 127.200 C 87.264 127.420,86.803 127.600,86.376 127.600 C 85.949 127.600,85.600 127.780,85.600 128.000 C 85.600 128.220,85.240 128.400,84.800 128.400 C 84.360 128.400,84.000 128.580,84.000 128.800 C 84.000 129.020,83.685 129.199,83.300 129.197 C 82.525 129.193,75.878 132.414,75.667 132.896 C 75.593 133.063,75.188 133.200,74.767 133.200 C 74.345 133.200,74.000 133.380,74.000 133.600 C 74.000 133.820,73.680 134.000,73.288 134.000 C 72.897 134.000,72.317 134.360,72.000 134.800 C 71.683 135.240,71.103 135.600,70.712 135.600 C 70.320 135.600,70.000 135.780,70.000 136.000 C 70.000 136.220,69.640 136.400,69.200 136.400 C 68.760 136.400,68.400 136.580,68.400 136.800 C 68.400 137.020,68.164 137.200,67.875 137.200 C 67.587 137.200,66.964 137.560,66.492 138.000 C 66.020 138.440,65.396 138.800,65.105 138.800 C 64.814 138.800,64.317 139.160,64.000 139.600 C 63.683 140.040,63.118 140.400,62.745 140.400 C 62.372 140.400,62.007 140.553,61.933 140.740 C 61.819 141.031,60.739 141.805,57.664 143.800 C 57.325 144.020,56.623 144.605,56.105 145.100 C 55.587 145.595,54.998 146.000,54.795 146.000 C 54.592 146.000,53.797 146.630,53.027 147.400 C 52.257 148.170,51.456 148.800,51.248 148.800 C 51.040 148.800,49.773 149.880,48.432 151.200 C 47.092 152.520,45.904 153.600,45.792 153.600 C 45.586 153.600,38.054 161.187,33.924 165.555 C 32.673 166.878,31.428 168.375,31.158 168.881 C 30.888 169.386,30.157 170.277,29.533 170.860 C 28.910 171.444,28.400 172.085,28.400 172.285 C 28.400 172.485,28.085 172.998,27.700 173.425 C 26.377 174.891,24.800 177.147,24.800 177.573 C 24.800 177.808,24.620 178.000,24.400 178.000 C 24.180 178.000,24.000 178.188,24.000 178.417 C 24.000 178.646,23.640 179.220,23.200 179.692 C 22.760 180.164,22.400 180.787,22.400 181.075 C 22.400 181.364,22.220 181.600,22.000 181.600 C 21.780 181.600,21.600 181.870,21.600 182.200 C 21.600 182.530,21.420 182.800,21.200 182.800 C 20.980 182.800,20.800 183.070,20.800 183.400 C 20.800 183.730,20.620 184.000,20.400 184.000 C 20.180 184.000,20.000 184.278,20.000 184.617 C 20.000 184.956,19.640 185.620,19.200 186.092 C 18.760 186.564,18.400 187.187,18.400 187.475 C 18.400 187.764,18.220 188.000,18.000 188.000 C 17.780 188.000,17.600 188.360,17.600 188.800 C 17.600 189.240,17.420 189.600,17.200 189.600 C 16.980 189.600,16.800 189.960,16.800 190.400 C 16.800 190.840,16.665 191.201,16.500 191.203 C 16.335 191.205,16.001 191.610,15.759 192.103 C 15.516 192.596,14.751 194.053,14.059 195.341 C 13.366 196.628,12.800 197.933,12.800 198.241 C 12.800 198.548,12.620 198.800,12.400 198.800 C 12.180 198.800,12.000 199.160,12.000 199.600 C 12.000 200.040,11.820 200.400,11.600 200.400 C 11.380 200.400,11.200 200.636,11.200 200.925 C 11.200 201.214,10.840 202.195,10.400 203.106 C 9.960 204.016,9.600 204.929,9.600 205.135 C 9.600 205.340,9.331 206.024,9.002 206.654 C 8.674 207.284,8.404 208.205,8.402 208.700 C 8.401 209.195,8.220 209.600,8.000 209.600 C 7.780 209.600,7.600 210.140,7.600 210.800 C 7.600 211.460,7.420 212.000,7.200 212.000 C 6.980 212.000,6.800 212.540,6.800 213.200 C 6.800 213.860,6.620 214.400,6.400 214.400 C 6.180 214.400,6.000 214.940,6.000 215.600 C 6.000 216.260,5.820 216.800,5.600 216.800 C 5.380 216.800,5.200 217.340,5.200 218.000 C 5.200 218.660,5.020 219.200,4.800 219.200 C 4.580 219.200,4.400 219.920,4.400 220.800 C 4.400 221.680,4.220 222.400,4.000 222.400 C 3.780 222.400,3.600 223.120,3.600 224.000 C 3.600 224.880,3.420 225.600,3.200 225.600 C 2.980 225.600,2.800 226.219,2.800 226.976 C 2.800 227.733,2.620 228.464,2.400 228.600 C 2.180 228.736,2.000 229.726,2.000 230.800 C 2.000 231.874,1.820 232.864,1.600 233.000 C 1.380 233.136,1.200 234.101,1.200 235.144 C 1.200 236.187,0.975 237.265,0.700 237.540 C -0.029 238.269,-0.029 279.657,0.700 279.900 C 1.025 280.008,1.200 280.896,1.200 282.433 C 1.200 283.744,1.378 284.800,1.600 284.800 C 1.820 284.800,2.000 285.700,2.000 286.800 C 2.000 287.900,2.180 288.800,2.400 288.800 C 2.620 288.800,2.800 289.610,2.800 290.600 C 2.800 291.590,2.980 292.400,3.200 292.400 C 3.420 292.400,3.600 293.120,3.600 294.000 C 3.600 294.880,3.780 295.600,4.000 295.600 C 4.220 295.600,4.400 296.140,4.400 296.800 C 4.400 297.460,4.580 298.000,4.800 298.000 C 5.020 298.000,5.200 298.720,5.200 299.600 C 5.200 300.480,5.380 301.200,5.600 301.200 C 5.820 301.200,6.000 301.740,6.000 302.400 C 6.000 303.060,6.180 303.600,6.400 303.600 C 6.620 303.600,6.800 304.039,6.800 304.576 C 6.800 305.113,6.980 305.664,7.200 305.800 C 7.420 305.936,7.600 306.487,7.600 307.024 C 7.600 307.561,7.780 308.000,8.000 308.000 C 8.220 308.000,8.400 308.216,8.400 308.480 C 8.400 309.412,9.781 313.600,10.089 313.600 C 10.260 313.600,10.400 313.879,10.400 314.219 C 10.400 314.560,10.760 315.584,11.200 316.494 C 11.640 317.405,12.000 318.386,12.000 318.675 C 12.000 318.964,12.180 319.200,12.400 319.200 C 12.620 319.200,12.800 319.560,12.800 320.000 C 12.800 320.440,12.980 320.800,13.200 320.800 C 13.420 320.800,13.600 321.160,13.600 321.600 C 13.600 322.040,13.746 322.400,13.925 322.400 C 14.104 322.400,14.498 323.030,14.800 323.800 C 15.102 324.570,15.496 325.200,15.675 325.200 C 15.854 325.200,16.000 325.560,16.000 326.000 C 16.000 326.440,16.180 326.800,16.400 326.800 C 16.620 326.800,16.800 327.078,16.800 327.417 C 16.800 327.756,17.160 328.420,17.600 328.892 C 18.040 329.364,18.400 329.987,18.400 330.275 C 18.400 330.564,18.580 330.800,18.800 330.800 C 19.020 330.800,19.200 331.078,19.200 331.417 C 19.200 331.756,19.560 332.420,20.000 332.892 C 20.440 333.364,20.800 333.987,20.800 334.275 C 20.800 334.564,20.980 334.800,21.200 334.800 C 21.420 334.800,21.600 335.036,21.600 335.325 C 21.600 335.613,21.960 336.236,22.400 336.708 C 22.840 337.180,23.200 337.804,23.200 338.095 C 23.200 338.386,23.560 338.883,24.000 339.200 C 24.440 339.517,24.800 339.930,24.800 340.117 C 24.800 340.304,25.025 340.708,25.300 341.015 C 26.461 342.309,26.800 342.786,26.800 343.124 C 26.800 343.320,27.340 344.046,28.000 344.737 C 28.660 345.428,29.200 346.156,29.200 346.356 C 29.200 346.556,30.100 347.638,31.200 348.761 C 32.300 349.885,33.200 350.971,33.200 351.175 C 33.200 351.379,34.636 352.953,36.391 354.673 C 40.371 358.573,41.427 359.629,45.327 363.609 C 47.047 365.364,48.627 366.800,48.838 366.800 C 49.049 366.800,50.031 367.610,51.021 368.600 C 52.011 369.590,52.974 370.400,53.160 370.400 C 53.347 370.400,54.187 371.030,55.028 371.800 C 55.869 372.570,56.714 373.200,56.907 373.200 C 57.099 373.200,57.508 373.425,57.815 373.700 C 59.092 374.845,59.584 375.200,59.895 375.200 C 60.076 375.200,60.483 375.560,60.800 376.000 C 61.117 376.440,61.697 376.800,62.088 376.800 C 62.480 376.800,62.800 376.950,62.800 377.132 C 62.800 377.315,63.295 377.720,63.900 378.032 C 64.505 378.345,65.349 378.915,65.775 379.300 C 66.202 379.685,66.787 380.000,67.075 380.000 C 67.364 380.000,67.600 380.180,67.600 380.400 C 67.600 380.620,67.960 380.800,68.400 380.800 C 68.840 380.800,69.200 380.980,69.200 381.200 C 69.200 381.420,69.436 381.600,69.725 381.600 C 70.013 381.600,70.636 381.960,71.108 382.400 C 71.580 382.840,72.244 383.200,72.583 383.200 C 72.922 383.200,73.200 383.380,73.200 383.600 C 73.200 383.820,73.560 384.000,74.000 384.000 C 74.440 384.000,74.800 384.146,74.800 384.325 C 74.800 384.504,75.430 384.898,76.200 385.200 C 76.970 385.502,77.600 385.896,77.600 386.075 C 77.600 386.254,77.960 386.400,78.400 386.400 C 78.840 386.400,79.200 386.580,79.200 386.800 C 79.200 387.020,79.430 387.200,79.710 387.200 C 79.991 387.200,81.296 387.734,82.610 388.387 C 83.925 389.041,85.315 389.581,85.700 389.587 C 86.085 389.594,86.400 389.740,86.400 389.911 C 86.400 390.219,90.588 391.600,91.520 391.600 C 91.784 391.600,92.000 391.780,92.000 392.000 C 92.000 392.220,92.439 392.400,92.976 392.400 C 93.513 392.400,94.064 392.580,94.200 392.800 C 94.336 393.020,94.887 393.200,95.424 393.200 C 95.961 393.200,96.400 393.380,96.400 393.600 C 96.400 393.820,96.940 394.000,97.600 394.000 C 98.260 394.000,98.800 394.180,98.800 394.400 C 98.800 394.620,99.520 394.800,100.400 394.800 C 101.280 394.800,102.000 394.980,102.000 395.200 C 102.000 395.420,102.540 395.600,103.200 395.600 C 103.860 395.600,104.400 395.780,104.400 396.000 C 104.400 396.220,105.109 396.400,105.976 396.400 C 106.843 396.400,107.664 396.580,107.800 396.800 C 107.936 397.020,108.757 397.200,109.624 397.200 C 110.491 397.200,111.200 397.380,111.200 397.600 C 111.200 397.820,112.100 398.000,113.200 398.000 C 114.300 398.000,115.200 398.180,115.200 398.400 C 115.200 398.622,116.256 398.800,117.567 398.800 C 119.104 398.800,119.992 398.975,120.100 399.300 C 120.230 399.691,124.792 399.800,141.113 399.800 C 157.257 399.800,162.073 399.687,162.460 399.300 C 162.735 399.025,163.813 398.800,164.856 398.800 C 165.899 398.800,166.864 398.620,167.000 398.400 C 167.136 398.180,168.137 398.000,169.224 398.000 C 170.311 398.000,171.200 397.820,171.200 397.600 C 171.200 397.380,171.920 397.200,172.800 397.200 C 173.680 397.200,174.400 397.020,174.400 396.800 C 174.400 396.580,175.120 396.400,176.000 396.400 C 176.880 396.400,177.600 396.220,177.600 396.000 C 177.600 395.780,178.320 395.600,179.200 395.600 C 180.080 395.600,180.800 395.420,180.800 395.200 C 180.800 394.980,181.340 394.800,182.000 394.800 C 182.660 394.800,183.200 394.620,183.200 394.400 C 183.200 394.180,183.740 394.000,184.400 394.000 C 185.060 394.000,185.600 393.820,185.600 393.600 C 185.600 393.380,186.140 393.200,186.800 393.200 C 187.460 393.200,188.000 393.020,188.000 392.800 C 188.000 392.580,188.439 392.400,188.976 392.400 C 189.513 392.400,190.064 392.220,190.200 392.000 C 190.336 391.780,190.842 391.599,191.324 391.598 C 191.806 391.596,192.716 391.326,193.346 390.998 C 193.976 390.669,194.660 390.400,194.865 390.400 C 195.071 390.400,195.984 390.040,196.894 389.600 C 197.805 389.160,198.786 388.800,199.075 388.800 C 199.364 388.800,199.600 388.620,199.600 388.400 C 199.600 388.180,199.960 388.000,200.400 388.000 C 200.840 388.000,201.200 387.820,201.200 387.600 C 201.200 387.380,201.452 387.200,201.759 387.200 C 202.067 387.200,203.372 386.634,204.659 385.941 C 205.947 385.249,207.404 384.484,207.897 384.241 C 208.390 383.999,208.795 383.665,208.797 383.500 C 208.799 383.335,209.160 383.200,209.600 383.200 C 210.040 383.200,210.400 383.020,210.400 382.800 C 210.400 382.580,210.760 382.400,211.200 382.400 C 211.640 382.400,212.000 382.220,212.000 382.000 C 212.000 381.780,212.236 381.600,212.525 381.600 C 212.813 381.600,213.436 381.240,213.908 380.800 C 214.380 380.360,214.962 380.000,215.200 380.000 C 215.438 380.000,216.020 379.640,216.492 379.200 C 216.964 378.760,217.587 378.400,217.875 378.400 C 218.164 378.400,218.400 378.220,218.400 378.000 C 218.400 377.780,218.636 377.600,218.925 377.600 C 219.213 377.600,219.836 377.240,220.308 376.800 C 220.780 376.360,221.354 376.000,221.583 376.000 C 221.812 376.000,222.000 375.820,222.000 375.600 C 222.000 375.380,222.192 375.200,222.427 375.200 C 222.917 375.200,225.489 373.348,226.447 372.304 C 226.803 371.917,227.271 371.600,227.488 371.600 C 227.704 371.600,228.429 371.076,229.099 370.436 C 229.769 369.796,230.704 369.065,231.177 368.812 C 231.651 368.559,233.122 367.327,234.445 366.076 C 238.813 361.946,246.400 354.414,246.400 354.208 C 246.400 354.096,247.480 352.908,248.800 351.568 C 250.120 350.227,251.200 348.960,251.200 348.752 C 251.200 348.544,251.830 347.743,252.600 346.973 C 253.370 346.203,254.000 345.408,254.000 345.205 C 254.000 345.002,254.405 344.413,254.900 343.895 C 255.395 343.377,255.980 342.675,256.200 342.336 C 258.195 339.261,258.969 338.181,259.260 338.067 C 259.447 337.993,259.600 337.628,259.600 337.255 C 259.600 336.882,259.960 336.317,260.400 336.000 C 260.840 335.683,261.200 335.186,261.200 334.895 C 261.200 334.604,261.560 333.980,262.000 333.508 C 262.440 333.036,262.800 332.413,262.800 332.125 C 262.800 331.836,262.980 331.600,263.200 331.600 C 263.420 331.600,263.600 331.240,263.600 330.800 C 263.600 330.360,263.780 330.000,264.000 330.000 C 264.220 330.000,264.400 329.680,264.400 329.288 C 264.400 328.897,264.760 328.317,265.200 328.000 C 265.640 327.683,266.000 327.103,266.000 326.712 C 266.000 326.320,266.180 326.000,266.400 326.000 C 266.620 326.000,266.800 325.655,266.800 325.233 C 266.800 324.812,266.937 324.407,267.104 324.333 C 267.586 324.122,270.807 317.475,270.803 316.700 C 270.801 316.315,270.980 316.000,271.200 316.000 C 271.420 316.000,271.600 315.640,271.600 315.200 C 271.600 314.760,271.741 314.400,271.913 314.400 C 272.085 314.400,272.474 313.545,272.778 312.500 C 273.082 311.455,273.445 310.510,273.585 310.400 C 273.949 310.114,275.200 306.051,275.200 305.154 C 275.200 304.739,275.380 304.400,275.600 304.400 C 275.820 304.400,276.000 303.860,276.000 303.200 C 276.000 302.540,276.180 302.000,276.400 302.000 C 276.620 302.000,276.800 301.471,276.800 300.824 C 276.800 300.177,276.980 299.536,277.200 299.400 C 277.420 299.264,277.600 298.533,277.600 297.776 C 277.600 297.019,277.780 296.400,278.000 296.400 C 278.220 296.400,278.400 295.680,278.400 294.800 C 278.400 293.920,278.580 293.200,278.800 293.200 C 279.020 293.200,279.200 292.581,279.200 291.824 C 279.200 291.067,279.380 290.336,279.600 290.200 C 279.820 290.064,280.000 289.153,280.000 288.176 C 280.000 287.199,280.180 286.400,280.400 286.400 C 280.620 286.400,280.800 285.511,280.800 284.424 C 280.800 283.337,280.981 282.335,281.203 282.198 C 281.451 282.045,281.359 281.702,280.967 281.310 C 280.519 280.862,280.391 280.240,280.540 279.235 C 282.603 265.315,282.208 245.529,279.608 232.600 C 278.379 226.484,278.044 225.112,276.367 219.300 C 276.129 218.475,275.838 217.303,275.721 216.695 C 275.604 216.087,275.349 215.492,275.154 215.371 C 274.959 215.251,274.800 214.749,274.800 214.256 C 274.800 213.763,274.657 213.189,274.482 212.980 C 274.307 212.771,273.935 211.880,273.655 211.000 C 273.376 210.120,272.955 208.950,272.720 208.400 C 272.485 207.850,272.151 207.040,271.978 206.600 C 270.598 203.102,269.852 201.462,267.188 196.088 C 263.749 189.150,263.770 189.002,268.005 190.162 C 269.212 190.493,270.650 190.877,271.200 191.015 C 275.831 192.181,282.719 196.214,287.800 200.736 C 295.889 207.934,306.506 198.187,298.934 190.514 C 288.426 179.868,270.234 172.860,256.599 174.206 C 253.845 174.477,253.900 174.518,249.385 168.800 C 244.396 162.482,233.466 152.147,224.676 145.437 C 221.856 143.285,215.660 139.200,215.215 139.200 C 214.987 139.200,214.800 139.020,214.800 138.800 C 214.800 138.580,214.607 138.400,214.372 138.400 C 214.137 138.400,213.192 137.890,212.272 137.267 C 208.767 134.892,195.794 128.715,190.295 126.803 C 188.587 126.209,187.072 125.606,186.928 125.462 C 186.784 125.318,186.257 125.200,185.757 125.200 C 185.257 125.200,184.749 125.041,184.629 124.846 C 184.508 124.651,183.913 124.396,183.305 124.279 C 182.282 124.082,181.298 123.818,177.600 122.751 C 172.044 121.147,165.753 119.943,156.800 118.768 C 153.723 118.364,132.119 117.879,131.400 118.198 M149.000 134.400 C 149.136 134.621,150.930 134.800,153.000 134.800 C 155.070 134.800,156.864 134.979,157.000 135.200 C 157.136 135.420,158.281 135.600,159.544 135.600 C 160.807 135.600,162.011 135.763,162.220 135.961 C 162.429 136.160,163.410 136.426,164.400 136.553 C 165.390 136.680,167.055 136.896,168.100 137.032 C 169.145 137.169,170.000 137.442,170.000 137.640 C 170.000 137.838,170.720 138.000,171.600 138.000 C 172.480 138.000,173.200 138.180,173.200 138.400 C 173.200 138.620,173.729 138.800,174.376 138.800 C 175.023 138.800,175.664 138.980,175.800 139.200 C 175.936 139.420,176.489 139.600,177.029 139.600 C 177.569 139.600,178.323 139.758,178.705 139.952 C 179.857 140.535,183.352 141.604,184.100 141.602 C 184.485 141.601,184.800 141.780,184.800 142.000 C 184.800 142.220,185.340 142.400,186.000 142.400 C 186.660 142.400,187.200 142.580,187.200 142.800 C 187.200 143.020,187.560 143.200,188.000 143.200 C 188.440 143.200,188.800 143.380,188.800 143.600 C 188.800 143.820,189.149 144.000,189.576 144.000 C 190.003 144.000,190.464 144.180,190.600 144.400 C 190.736 144.620,191.197 144.800,191.624 144.800 C 192.051 144.800,192.400 144.980,192.400 145.200 C 192.400 145.420,192.760 145.600,193.200 145.600 C 193.640 145.600,194.000 145.780,194.000 146.000 C 194.000 146.220,194.360 146.400,194.800 146.400 C 195.240 146.400,195.600 146.580,195.600 146.800 C 195.600 147.020,195.960 147.200,196.400 147.200 C 196.840 147.200,197.200 147.380,197.200 147.600 C 197.200 147.820,197.560 148.000,198.000 148.000 C 198.440 148.000,198.800 148.180,198.800 148.400 C 198.800 148.620,199.160 148.800,199.600 148.800 C 200.040 148.800,200.400 148.980,200.400 149.200 C 200.400 149.420,200.636 149.600,200.925 149.600 C 201.213 149.600,201.836 149.960,202.308 150.400 C 202.780 150.840,203.444 151.200,203.783 151.200 C 204.122 151.200,204.400 151.380,204.400 151.600 C 204.400 151.820,204.720 152.000,205.112 152.000 C 205.503 152.000,206.083 152.360,206.400 152.800 C 206.717 153.240,207.282 153.600,207.655 153.600 C 208.028 153.600,208.393 153.741,208.467 153.912 C 208.642 154.322,213.944 158.000,214.360 158.000 C 214.537 158.000,215.246 158.540,215.937 159.200 C 216.628 159.860,217.356 160.400,217.556 160.400 C 217.756 160.400,218.838 161.300,219.961 162.400 C 221.085 163.500,222.155 164.400,222.340 164.400 C 222.801 164.400,235.600 177.231,235.600 177.693 C 235.600 177.896,236.320 178.754,237.200 179.600 C 238.080 180.446,238.800 181.331,238.800 181.569 C 238.800 181.806,238.980 182.000,239.200 182.000 C 239.420 182.000,239.600 182.182,239.600 182.404 C 239.600 182.626,240.140 183.372,240.800 184.063 C 241.460 184.754,242.000 185.463,242.000 185.640 C 242.000 186.056,245.678 191.358,246.088 191.533 C 246.259 191.607,246.400 191.972,246.400 192.345 C 246.400 192.718,246.760 193.283,247.200 193.600 C 247.640 193.917,248.000 194.497,248.000 194.888 C 248.000 195.280,248.180 195.600,248.400 195.600 C 248.620 195.600,248.800 195.920,248.800 196.312 C 248.800 196.703,249.160 197.283,249.600 197.600 C 250.040 197.917,250.400 198.497,250.400 198.888 C 250.400 199.280,250.580 199.600,250.800 199.600 C 251.020 199.600,251.200 199.960,251.200 200.400 C 251.200 200.840,251.380 201.200,251.600 201.200 C 251.820 201.200,252.000 201.560,252.000 202.000 C 252.000 202.440,252.180 202.800,252.400 202.800 C 252.620 202.800,252.800 203.160,252.800 203.600 C 252.800 204.040,252.980 204.400,253.200 204.400 C 253.420 204.400,253.600 204.760,253.600 205.200 C 253.600 205.640,253.780 206.000,254.000 206.000 C 254.220 206.000,254.400 206.360,254.400 206.800 C 254.400 207.240,254.535 207.601,254.700 207.603 C 255.106 207.607,256.000 209.586,256.000 210.480 C 256.000 210.876,256.180 211.200,256.400 211.200 C 256.620 211.200,256.800 211.560,256.800 212.000 C 256.800 212.440,256.980 212.800,257.200 212.800 C 257.420 212.800,257.600 213.340,257.600 214.000 C 257.600 214.660,257.760 215.200,257.955 215.200 C 258.150 215.200,258.430 216.006,258.578 216.991 C 258.725 217.976,259.016 218.886,259.223 219.014 C 259.430 219.142,259.600 219.676,259.600 220.200 C 259.600 220.724,259.780 221.264,260.000 221.400 C 260.220 221.536,260.400 222.166,260.400 222.800 C 260.400 223.434,260.580 224.064,260.800 224.200 C 261.020 224.336,261.200 224.977,261.200 225.624 C 261.200 226.271,261.380 226.800,261.600 226.800 C 261.820 226.800,262.000 227.520,262.000 228.400 C 262.000 229.280,262.180 230.000,262.400 230.000 C 262.620 230.000,262.800 230.799,262.800 231.776 C 262.800 232.753,262.980 233.664,263.200 233.800 C 263.420 233.936,263.600 234.836,263.600 235.800 C 263.600 236.764,263.780 237.664,264.000 237.800 C 264.220 237.936,264.400 239.106,264.400 240.400 C 264.400 241.694,264.580 242.864,264.800 243.000 C 265.021 243.136,265.200 244.930,265.200 247.000 C 265.200 249.070,265.379 250.864,265.600 251.000 C 265.844 251.151,266.000 254.271,266.000 259.024 C 266.000 263.941,265.853 266.800,265.600 266.800 C 265.360 266.800,265.200 268.400,265.200 270.800 C 265.200 273.200,265.040 274.800,264.800 274.800 C 264.578 274.800,264.400 275.859,264.400 277.176 C 264.400 278.483,264.220 279.664,264.000 279.800 C 263.780 279.936,263.600 280.937,263.600 282.024 C 263.600 283.111,263.420 284.000,263.200 284.000 C 262.980 284.000,262.800 284.709,262.800 285.576 C 262.800 286.443,262.620 287.264,262.400 287.400 C 262.180 287.536,262.000 288.256,262.000 289.000 C 262.000 289.744,261.820 290.464,261.600 290.600 C 261.380 290.736,261.200 291.289,261.200 291.829 C 261.200 292.369,261.037 293.123,260.839 293.505 C 260.177 294.777,258.400 300.841,258.400 301.828 C 258.400 302.362,258.220 302.800,258.000 302.800 C 257.780 302.800,257.600 303.160,257.600 303.600 C 257.600 304.040,257.420 304.400,257.200 304.400 C 256.980 304.400,256.800 304.940,256.800 305.600 C 256.800 306.260,256.620 306.800,256.400 306.800 C 256.180 306.800,256.000 307.160,256.000 307.600 C 256.000 308.040,255.820 308.400,255.600 308.400 C 255.380 308.400,255.200 308.760,255.200 309.200 C 255.200 309.640,255.020 310.000,254.800 310.000 C 254.580 310.000,254.400 310.450,254.400 311.000 C 254.400 311.550,254.220 312.000,254.000 312.000 C 253.780 312.000,253.600 312.360,253.600 312.800 C 253.600 313.240,253.465 313.601,253.300 313.603 C 253.135 313.605,252.802 314.010,252.560 314.503 C 251.378 316.911,250.170 319.013,249.900 319.133 C 249.735 319.207,249.600 319.612,249.600 320.033 C 249.600 320.455,249.420 320.800,249.200 320.800 C 248.980 320.800,248.800 321.120,248.800 321.512 C 248.800 321.903,248.440 322.483,248.000 322.800 C 247.560 323.117,247.200 323.614,247.200 323.905 C 247.200 324.196,246.869 324.789,246.464 325.223 C 246.059 325.658,245.474 326.505,245.164 327.107 C 244.854 327.708,244.309 328.523,243.953 328.919 C 243.597 329.314,242.971 330.259,242.562 331.019 C 242.153 331.778,241.679 332.400,241.509 332.400 C 241.339 332.400,241.200 332.648,241.200 332.952 C 241.200 333.255,240.480 334.245,239.600 335.152 C 238.720 336.059,238.000 336.978,238.000 337.195 C 238.000 337.412,236.965 338.678,235.700 340.008 C 230.892 345.066,224.817 351.200,224.615 351.200 C 224.500 351.200,223.308 352.280,221.968 353.600 C 220.627 354.920,219.348 356.000,219.126 356.000 C 218.903 356.000,218.244 356.496,217.660 357.103 C 217.077 357.709,215.925 358.560,215.100 358.994 C 214.275 359.427,213.600 359.921,213.600 360.091 C 213.600 360.261,213.424 360.400,213.208 360.400 C 212.993 360.400,211.868 361.119,210.708 361.998 C 209.549 362.877,208.415 363.597,208.188 363.598 C 207.962 363.599,207.517 363.960,207.200 364.400 C 206.883 364.840,206.303 365.200,205.912 365.200 C 205.520 365.200,205.200 365.380,205.200 365.600 C 205.200 365.820,204.964 366.000,204.675 366.000 C 204.387 366.000,203.764 366.360,203.292 366.800 C 202.820 367.240,202.156 367.600,201.817 367.600 C 201.478 367.600,201.200 367.780,201.200 368.000 C 201.200 368.220,200.840 368.400,200.400 368.400 C 199.960 368.400,199.600 368.580,199.600 368.800 C 199.600 369.020,199.240 369.200,198.800 369.200 C 198.360 369.200,198.000 369.380,198.000 369.600 C 198.000 369.820,197.640 370.000,197.200 370.000 C 196.760 370.000,196.399 370.135,196.399 370.300 C 196.398 370.465,195.408 371.050,194.200 371.600 C 192.992 372.150,192.002 372.735,192.001 372.900 C 192.001 373.065,191.640 373.200,191.200 373.200 C 190.760 373.200,190.400 373.380,190.400 373.600 C 190.400 373.820,189.860 374.000,189.200 374.000 C 188.540 374.000,188.000 374.180,188.000 374.400 C 188.000 374.620,187.770 374.800,187.489 374.800 C 186.806 374.800,180.784 376.712,179.905 377.208 C 179.523 377.424,178.859 377.600,178.429 377.600 C 177.999 377.600,177.536 377.780,177.400 378.000 C 177.264 378.220,176.623 378.400,175.976 378.400 C 175.329 378.400,174.800 378.580,174.800 378.800 C 174.800 379.020,174.181 379.200,173.424 379.200 C 172.667 379.200,171.936 379.380,171.800 379.600 C 171.664 379.820,170.843 380.000,169.976 380.000 C 169.109 380.000,168.400 380.180,168.400 380.400 C 168.400 380.620,167.601 380.800,166.624 380.800 C 165.647 380.800,164.736 380.980,164.600 381.200 C 164.464 381.420,163.564 381.600,162.600 381.600 C 161.636 381.600,160.736 381.780,160.600 382.000 C 160.464 382.220,159.114 382.400,157.600 382.400 C 156.086 382.400,154.736 382.580,154.600 382.800 C 154.452 383.039,151.863 383.200,148.176 383.200 C 144.325 383.200,142.000 383.351,142.000 383.600 C 142.000 383.820,141.730 384.000,141.400 384.000 C 141.070 384.000,140.800 383.820,140.800 383.600 C 140.800 383.349,138.333 383.200,134.200 383.200 C 130.067 383.200,127.600 383.051,127.600 382.800 C 127.600 382.571,126.400 382.400,124.800 382.400 C 123.200 382.400,122.000 382.229,122.000 382.000 C 122.000 381.780,121.010 381.600,119.800 381.600 C 118.590 381.600,117.600 381.420,117.600 381.200 C 117.600 380.980,116.801 380.800,115.824 380.800 C 114.847 380.800,113.936 380.620,113.800 380.400 C 113.664 380.180,112.843 380.000,111.976 380.000 C 111.109 380.000,110.400 379.820,110.400 379.600 C 110.400 379.380,109.871 379.200,109.224 379.200 C 108.577 379.200,107.936 379.020,107.800 378.800 C 107.664 378.580,107.034 378.400,106.400 378.400 C 105.766 378.400,105.136 378.220,105.000 378.000 C 104.864 377.780,104.324 377.600,103.800 377.600 C 103.276 377.600,102.736 377.420,102.600 377.200 C 102.464 376.980,102.001 376.800,101.571 376.800 C 101.141 376.800,100.477 376.644,100.095 376.454 C 98.803 375.810,96.607 375.101,95.300 374.906 C 94.585 374.800,94.000 374.552,94.000 374.356 C 94.000 374.160,93.640 374.000,93.200 374.000 C 92.760 374.000,92.400 373.820,92.400 373.600 C 92.400 373.380,92.040 373.200,91.600 373.200 C 91.160 373.200,90.800 373.020,90.800 372.800 C 90.800 372.580,90.350 372.400,89.800 372.400 C 89.250 372.400,88.800 372.220,88.800 372.000 C 88.800 371.780,88.440 371.600,88.000 371.600 C 87.560 371.600,87.200 371.420,87.200 371.200 C 87.200 370.980,86.840 370.800,86.400 370.800 C 85.960 370.800,85.600 370.620,85.600 370.400 C 85.600 370.180,85.240 370.000,84.800 370.000 C 84.360 370.000,84.000 369.820,84.000 369.600 C 84.000 369.380,83.722 369.200,83.383 369.200 C 83.044 369.200,82.380 368.840,81.908 368.400 C 81.436 367.960,80.813 367.600,80.525 367.600 C 80.236 367.600,80.000 367.420,80.000 367.200 C 80.000 366.980,79.640 366.800,79.200 366.800 C 78.760 366.800,78.400 366.620,78.400 366.400 C 78.400 366.180,78.080 366.000,77.688 366.000 C 77.297 366.000,76.717 365.640,76.400 365.200 C 76.083 364.760,75.518 364.400,75.145 364.400 C 74.772 364.400,74.407 364.255,74.333 364.077 C 74.260 363.899,73.300 363.146,72.200 362.403 C 71.100 361.660,70.110 360.931,70.000 360.782 C 69.890 360.633,69.260 360.232,68.600 359.890 C 67.940 359.548,67.003 358.893,66.517 358.434 C 66.031 357.975,65.432 357.600,65.185 357.600 C 64.939 357.600,64.046 356.880,63.200 356.000 C 62.354 355.120,61.499 354.400,61.299 354.400 C 60.824 354.400,45.600 339.176,45.600 338.701 C 45.600 338.501,44.880 337.646,44.000 336.800 C 43.120 335.954,42.400 335.061,42.400 334.815 C 42.400 334.568,42.025 333.969,41.566 333.483 C 41.107 332.997,40.452 332.060,40.110 331.400 C 39.768 330.740,39.367 330.110,39.218 330.000 C 39.069 329.890,38.340 328.900,37.597 327.800 C 36.854 326.700,36.101 325.740,35.923 325.667 C 35.745 325.593,35.600 325.228,35.600 324.855 C 35.600 324.482,35.240 323.917,34.800 323.600 C 34.360 323.283,34.000 322.703,34.000 322.312 C 34.000 321.920,33.820 321.600,33.600 321.600 C 33.380 321.600,33.200 321.322,33.200 320.983 C 33.200 320.644,32.840 319.980,32.400 319.508 C 31.960 319.036,31.600 318.413,31.600 318.125 C 31.600 317.836,31.420 317.600,31.200 317.600 C 30.980 317.600,30.800 317.240,30.800 316.800 C 30.800 316.360,30.620 316.000,30.400 316.000 C 30.180 316.000,30.000 315.640,30.000 315.200 C 30.000 314.760,29.820 314.400,29.600 314.400 C 29.380 314.400,29.200 314.040,29.200 313.600 C 29.200 313.160,29.020 312.800,28.800 312.800 C 28.580 312.800,28.400 312.440,28.400 312.000 C 28.400 311.560,28.220 311.200,28.000 311.200 C 27.780 311.200,27.600 310.750,27.600 310.200 C 27.600 309.650,27.420 309.200,27.200 309.200 C 26.980 309.200,26.800 308.840,26.800 308.400 C 26.800 307.960,26.620 307.600,26.400 307.600 C 26.180 307.600,26.000 307.240,26.000 306.800 C 26.000 306.360,25.840 306.000,25.644 306.000 C 25.448 306.000,25.200 305.415,25.094 304.700 C 24.899 303.393,24.190 301.197,23.546 299.905 C 23.356 299.523,23.200 298.859,23.200 298.429 C 23.200 297.999,23.020 297.536,22.800 297.400 C 22.580 297.264,22.400 296.801,22.400 296.371 C 22.400 295.941,22.242 295.277,22.049 294.895 C 21.460 293.728,20.800 291.392,20.800 290.472 C 20.800 289.992,20.620 289.600,20.400 289.600 C 20.180 289.600,20.000 288.891,20.000 288.024 C 20.000 287.157,19.820 286.336,19.600 286.200 C 19.380 286.064,19.200 285.153,19.200 284.176 C 19.200 283.199,19.020 282.400,18.800 282.400 C 18.580 282.400,18.400 281.511,18.400 280.424 C 18.400 279.337,18.220 278.336,18.000 278.200 C 17.780 278.064,17.600 276.718,17.600 275.210 C 17.600 273.701,17.417 272.406,17.194 272.331 C 16.638 272.146,16.638 246.002,17.194 245.446 C 17.417 245.223,17.600 243.827,17.600 242.344 C 17.600 240.861,17.780 239.536,18.000 239.400 C 18.220 239.264,18.400 238.274,18.400 237.200 C 18.400 236.126,18.580 235.136,18.800 235.000 C 19.020 234.864,19.200 234.043,19.200 233.176 C 19.200 232.309,19.380 231.600,19.600 231.600 C 19.820 231.600,20.000 230.891,20.000 230.024 C 20.000 229.157,20.180 228.336,20.400 228.200 C 20.620 228.064,20.800 227.333,20.800 226.576 C 20.800 225.819,20.980 225.200,21.200 225.200 C 21.420 225.200,21.600 224.671,21.600 224.024 C 21.600 223.377,21.780 222.736,22.000 222.600 C 22.220 222.464,22.400 222.001,22.400 221.571 C 22.400 221.141,22.576 220.477,22.792 220.095 C 23.288 219.216,25.200 213.194,25.200 212.511 C 25.200 212.230,25.380 212.000,25.600 212.000 C 25.820 212.000,26.000 211.460,26.000 210.800 C 26.000 210.140,26.180 209.600,26.400 209.600 C 26.620 209.600,26.800 209.240,26.800 208.800 C 26.800 208.360,26.935 207.999,27.100 207.999 C 27.265 207.998,27.850 207.008,28.400 205.800 C 28.950 204.592,29.535 203.602,29.700 203.601 C 29.865 203.601,30.000 203.240,30.000 202.800 C 30.000 202.360,30.180 202.000,30.400 202.000 C 30.620 202.000,30.800 201.640,30.800 201.200 C 30.800 200.760,30.980 200.400,31.200 200.400 C 31.420 200.400,31.600 200.040,31.600 199.600 C 31.600 199.160,31.780 198.800,32.000 198.800 C 32.220 198.800,32.400 198.522,32.400 198.183 C 32.400 197.844,32.760 197.180,33.200 196.708 C 33.640 196.236,34.000 195.613,34.000 195.325 C 34.000 195.036,34.180 194.800,34.400 194.800 C 34.620 194.800,34.800 194.480,34.800 194.088 C 34.800 193.697,35.160 193.117,35.600 192.800 C 36.040 192.483,36.401 192.038,36.402 191.812 C 36.403 191.585,37.123 190.451,38.002 189.292 C 38.881 188.132,39.600 187.007,39.600 186.792 C 39.600 186.576,39.739 186.400,39.909 186.400 C 40.079 186.400,40.573 185.725,41.006 184.900 C 41.440 184.075,42.291 182.923,42.897 182.340 C 43.504 181.756,44.000 181.097,44.000 180.874 C 44.000 180.652,45.080 179.373,46.400 178.032 C 47.720 176.692,48.800 175.500,48.800 175.385 C 48.800 175.183,54.934 169.108,59.992 164.300 C 61.322 163.035,62.603 162.000,62.837 162.000 C 63.071 162.000,63.954 161.280,64.800 160.400 C 65.646 159.520,66.621 158.800,66.969 158.800 C 67.316 158.800,67.600 158.661,67.600 158.491 C 67.600 158.321,68.222 157.847,68.981 157.438 C 69.741 157.029,70.686 156.403,71.081 156.047 C 71.477 155.691,72.292 155.146,72.893 154.836 C 73.495 154.526,74.305 153.986,74.693 153.636 C 75.082 153.286,75.895 152.745,76.500 152.432 C 77.105 152.120,77.600 151.715,77.600 151.532 C 77.600 151.350,77.960 151.200,78.400 151.200 C 78.840 151.200,79.200 151.020,79.200 150.800 C 79.200 150.580,79.545 150.400,79.967 150.400 C 80.388 150.400,80.793 150.265,80.867 150.100 C 80.987 149.830,83.089 148.622,85.497 147.440 C 85.990 147.198,86.395 146.865,86.397 146.700 C 86.399 146.535,86.760 146.400,87.200 146.400 C 87.640 146.400,88.000 146.220,88.000 146.000 C 88.000 145.780,88.450 145.600,89.000 145.600 C 89.550 145.600,90.000 145.420,90.000 145.200 C 90.000 144.980,90.360 144.800,90.800 144.800 C 91.240 144.800,91.600 144.620,91.600 144.400 C 91.600 144.180,91.960 144.000,92.400 144.000 C 92.840 144.000,93.200 143.820,93.200 143.600 C 93.200 143.380,93.740 143.200,94.400 143.200 C 95.060 143.200,95.600 143.020,95.600 142.800 C 95.600 142.580,95.960 142.400,96.400 142.400 C 96.840 142.400,97.200 142.220,97.200 142.000 C 97.200 141.780,97.638 141.600,98.172 141.600 C 99.159 141.600,105.223 139.823,106.495 139.161 C 106.877 138.963,107.631 138.800,108.171 138.800 C 108.711 138.800,109.264 138.620,109.400 138.400 C 109.536 138.180,110.256 138.000,111.000 138.000 C 111.744 138.000,112.464 137.820,112.600 137.600 C 112.736 137.380,113.557 137.200,114.424 137.200 C 115.291 137.200,116.000 137.020,116.000 136.800 C 116.000 136.580,116.900 136.400,118.000 136.400 C 119.100 136.400,120.000 136.220,120.000 136.000 C 120.000 135.774,121.133 135.600,122.600 135.600 C 124.067 135.600,125.200 135.426,125.200 135.200 C 125.200 134.960,126.800 134.800,129.200 134.800 C 131.600 134.800,133.200 134.640,133.200 134.400 C 133.200 134.147,136.059 134.000,140.976 134.000 C 145.729 134.000,148.849 134.156,149.000 134.400 M74.800 196.000 C 74.800 196.220,74.080 196.400,73.200 196.400 C 72.320 196.400,71.600 196.580,71.600 196.800 C 71.600 197.020,71.060 197.200,70.400 197.200 C 69.740 197.200,69.200 197.380,69.200 197.600 C 69.200 197.820,68.857 198.000,68.438 198.000 C 67.622 198.000,64.288 199.601,64.067 200.100 C 63.993 200.265,63.678 200.400,63.367 200.400 C 63.055 200.400,62.800 200.580,62.800 200.800 C 62.800 201.020,62.533 201.200,62.207 201.200 C 61.881 201.200,61.058 201.695,60.380 202.300 C 56.965 205.343,55.200 207.209,55.200 207.774 C 55.200 208.118,55.020 208.400,54.800 208.400 C 54.580 208.400,54.400 208.994,54.400 209.720 C 54.400 210.446,54.180 211.260,53.910 211.530 C 53.523 211.917,53.523 212.185,53.910 212.805 C 54.180 213.236,54.400 214.132,54.400 214.795 C 54.400 215.458,54.580 216.000,54.800 216.000 C 55.020 216.000,55.200 216.276,55.200 216.613 C 55.200 217.397,57.785 220.000,58.563 220.000 C 58.887 220.000,59.264 220.180,59.400 220.400 C 59.536 220.620,60.897 220.800,62.424 220.800 C 64.008 220.800,65.200 220.628,65.200 220.400 C 65.200 220.180,65.632 220.000,66.159 220.000 C 66.772 220.000,67.858 219.276,69.161 218.000 C 70.285 216.900,71.473 216.000,71.802 216.000 C 72.131 216.000,72.400 215.820,72.400 215.600 C 72.400 215.380,72.670 215.200,73.000 215.200 C 73.330 215.200,73.600 215.020,73.600 214.800 C 73.600 214.580,73.960 214.400,74.400 214.400 C 74.840 214.400,75.200 214.220,75.200 214.000 C 75.200 213.780,75.639 213.600,76.176 213.600 C 76.713 213.600,77.264 213.420,77.400 213.200 C 77.542 212.969,79.671 212.800,82.424 212.800 C 85.341 212.800,87.200 212.956,87.200 213.200 C 87.200 213.420,87.740 213.600,88.400 213.600 C 89.060 213.600,89.600 213.780,89.600 214.000 C 89.600 214.220,89.960 214.400,90.400 214.400 C 90.840 214.400,91.200 214.580,91.200 214.800 C 91.200 215.020,91.436 215.200,91.725 215.200 C 92.013 215.200,92.636 215.560,93.108 216.000 C 93.580 216.440,94.070 216.800,94.197 216.800 C 94.323 216.800,95.057 217.430,95.827 218.200 C 98.069 220.443,104.082 221.885,105.000 220.400 C 105.136 220.180,105.561 220.000,105.945 220.000 C 106.855 220.000,109.600 217.481,109.600 216.646 C 109.600 216.291,109.780 216.000,110.000 216.000 C 110.239 216.000,110.400 214.467,110.400 212.200 C 110.400 209.933,110.239 208.400,110.000 208.400 C 109.780 208.400,109.600 208.125,109.600 207.789 C 109.600 207.234,106.310 203.600,105.807 203.600 C 105.689 203.600,105.028 203.060,104.337 202.400 C 103.646 201.740,102.838 201.200,102.541 201.200 C 102.243 201.200,102.000 201.020,102.000 200.800 C 102.000 200.580,101.717 200.400,101.371 200.400 C 101.026 200.400,100.464 200.121,100.123 199.780 C 99.782 199.440,98.985 199.057,98.352 198.930 C 97.718 198.804,97.200 198.543,97.200 198.350 C 97.200 198.158,96.840 198.000,96.400 198.000 C 95.960 198.000,95.600 197.820,95.600 197.600 C 95.600 197.380,95.060 197.200,94.400 197.200 C 93.740 197.200,93.200 197.020,93.200 196.800 C 93.200 196.580,92.480 196.400,91.600 196.400 C 90.720 196.400,90.000 196.220,90.000 196.000 C 90.000 195.747,87.200 195.600,82.400 195.600 C 77.600 195.600,74.800 195.747,74.800 196.000 M192.200 196.000 C 192.064 196.220,191.421 196.400,190.771 196.400 C 189.635 196.400,189.282 196.516,187.305 197.538 C 186.813 197.792,186.048 198.000,185.605 198.000 C 185.162 198.000,184.800 198.180,184.800 198.400 C 184.800 198.620,184.440 198.800,184.000 198.800 C 183.560 198.800,183.200 198.980,183.200 199.200 C 183.200 199.420,182.840 199.600,182.400 199.600 C 181.960 199.600,181.600 199.780,181.600 200.000 C 181.600 200.220,181.364 200.400,181.075 200.400 C 180.787 200.400,180.164 200.760,179.692 201.200 C 179.220 201.640,178.646 202.000,178.417 202.000 C 178.188 202.000,178.000 202.180,178.000 202.400 C 178.000 202.620,177.775 202.802,177.500 202.804 C 177.225 202.806,176.550 203.381,176.000 204.083 C 175.450 204.784,174.415 205.946,173.700 206.666 C 172.985 207.385,172.400 208.249,172.400 208.587 C 172.400 208.924,172.220 209.200,172.000 209.200 C 171.769 209.200,171.600 210.467,171.600 212.200 C 171.600 213.933,171.769 215.200,172.000 215.200 C 172.220 215.200,172.400 215.479,172.400 215.819 C 172.400 216.497,175.285 219.504,176.701 220.300 C 177.760 220.896,183.200 220.980,183.200 220.400 C 183.200 220.180,183.560 220.000,184.000 220.000 C 184.440 220.000,184.800 219.859,184.800 219.686 C 184.800 219.514,185.295 219.069,185.900 218.698 C 186.505 218.326,187.720 217.384,188.600 216.603 C 189.480 215.823,190.695 214.964,191.300 214.694 C 191.905 214.425,192.400 214.069,192.400 213.902 C 192.400 213.736,192.940 213.600,193.600 213.600 C 194.260 213.600,194.800 213.420,194.800 213.200 C 194.800 212.954,196.800 212.800,200.000 212.800 C 203.200 212.800,205.200 212.954,205.200 213.200 C 205.200 213.420,205.740 213.600,206.400 213.600 C 207.060 213.600,207.600 213.736,207.600 213.902 C 207.600 214.069,208.104 214.428,208.720 214.700 C 209.335 214.973,210.538 215.836,211.392 216.618 C 212.245 217.400,213.452 218.340,214.072 218.706 C 214.692 219.073,215.200 219.514,215.200 219.686 C 215.200 219.859,215.560 220.000,216.000 220.000 C 216.440 220.000,216.800 220.180,216.800 220.400 C 216.800 220.980,222.240 220.896,223.299 220.300 C 224.715 219.504,227.600 216.497,227.600 215.819 C 227.600 215.479,227.780 215.200,228.000 215.200 C 228.231 215.200,228.400 213.933,228.400 212.200 C 228.400 210.467,228.231 209.200,228.000 209.200 C 227.780 209.200,227.600 208.924,227.600 208.587 C 227.600 208.249,227.015 207.385,226.300 206.666 C 225.585 205.946,224.550 204.784,224.000 204.083 C 223.450 203.381,222.775 202.806,222.500 202.804 C 222.225 202.802,222.000 202.620,222.000 202.400 C 222.000 202.180,221.812 202.000,221.583 202.000 C 221.354 202.000,220.780 201.640,220.308 201.200 C 219.836 200.760,219.213 200.400,218.925 200.400 C 218.636 200.400,218.400 200.220,218.400 200.000 C 218.400 199.780,218.040 199.600,217.600 199.600 C 217.160 199.600,216.800 199.420,216.800 199.200 C 216.800 198.980,216.440 198.800,216.000 198.800 C 215.560 198.800,215.200 198.620,215.200 198.400 C 215.200 198.180,214.851 198.000,214.424 198.000 C 213.997 198.000,213.536 197.820,213.400 197.600 C 213.264 197.380,212.724 197.200,212.200 197.200 C 211.676 197.200,211.136 197.020,211.000 196.800 C 210.864 196.580,210.144 196.400,209.400 196.400 C 208.656 196.400,207.936 196.220,207.800 196.000 C 207.649 195.756,204.604 195.600,200.000 195.600 C 195.396 195.600,192.351 195.756,192.200 196.000 M102.000 291.551 C 102.000 291.745,101.460 292.127,100.800 292.400 C 100.140 292.673,99.600 293.063,99.600 293.265 C 99.600 293.468,99.240 294.020,98.800 294.492 C 98.360 294.964,98.000 295.846,98.000 296.452 C 98.000 297.057,97.820 297.664,97.600 297.800 C 97.380 297.936,97.200 298.566,97.200 299.200 C 97.200 299.834,97.380 300.464,97.600 300.600 C 97.820 300.736,98.000 301.304,98.000 301.862 C 98.000 303.385,101.264 307.600,102.444 307.600 C 102.628 307.600,103.589 308.410,104.579 309.400 C 105.569 310.390,106.614 311.200,106.901 311.200 C 107.188 311.200,107.683 311.560,108.000 312.000 C 108.317 312.440,108.807 312.800,109.088 312.800 C 109.370 312.800,109.600 312.980,109.600 313.200 C 109.600 313.420,109.870 313.600,110.200 313.600 C 110.530 313.600,110.800 313.780,110.800 314.000 C 110.800 314.220,111.070 314.400,111.400 314.400 C 111.730 314.400,112.000 314.580,112.000 314.800 C 112.000 315.020,112.360 315.200,112.800 315.200 C 113.240 315.200,113.600 315.380,113.600 315.600 C 113.600 315.820,113.960 316.000,114.400 316.000 C 114.840 316.000,115.200 316.180,115.200 316.400 C 115.200 316.620,115.560 316.800,116.000 316.800 C 116.440 316.800,116.800 316.980,116.800 317.200 C 116.800 317.420,117.160 317.600,117.600 317.600 C 118.040 317.600,118.400 317.780,118.400 318.000 C 118.400 318.220,118.940 318.400,119.600 318.400 C 120.260 318.400,120.800 318.580,120.800 318.800 C 120.800 319.020,121.340 319.200,122.000 319.200 C 122.660 319.200,123.200 319.380,123.200 319.600 C 123.200 319.820,123.740 320.000,124.400 320.000 C 125.060 320.000,125.600 320.180,125.600 320.400 C 125.600 320.620,126.284 320.800,127.120 320.800 C 127.956 320.800,128.811 320.963,129.020 321.163 C 129.933 322.036,147.744 322.816,148.542 322.018 C 148.772 321.788,149.903 321.600,151.056 321.600 C 152.209 321.600,153.264 321.420,153.400 321.200 C 153.536 320.980,154.256 320.800,155.000 320.800 C 155.744 320.800,156.464 320.620,156.600 320.400 C 156.736 320.180,157.366 320.000,158.000 320.000 C 158.634 320.000,159.242 319.856,159.351 319.679 C 159.460 319.503,160.461 319.110,161.575 318.807 C 162.689 318.504,163.600 318.108,163.600 317.928 C 163.600 317.747,163.845 317.600,164.144 317.600 C 164.801 317.600,169.745 315.124,169.933 314.700 C 170.007 314.535,170.412 314.400,170.833 314.400 C 171.255 314.400,171.600 314.220,171.600 314.000 C 171.600 313.780,171.870 313.600,172.200 313.600 C 172.530 313.600,172.800 313.420,172.800 313.200 C 172.800 312.980,173.070 312.800,173.400 312.800 C 173.730 312.800,174.000 312.620,174.000 312.400 C 174.000 312.180,174.198 312.000,174.440 312.000 C 174.681 312.000,175.383 311.460,176.000 310.800 C 176.617 310.140,177.327 309.600,177.579 309.600 C 177.830 309.600,178.453 309.195,178.962 308.700 C 179.471 308.205,180.628 307.170,181.535 306.400 C 182.441 305.630,183.186 304.775,183.191 304.500 C 183.196 304.225,183.380 304.000,183.600 304.000 C 183.820 304.000,184.000 303.550,184.000 303.000 C 184.000 302.450,184.180 302.000,184.400 302.000 C 184.629 302.000,184.800 300.800,184.800 299.200 C 184.800 297.600,184.629 296.400,184.400 296.400 C 184.180 296.400,184.000 296.102,184.000 295.738 C 184.000 290.351,173.692 289.458,168.414 294.387 C 167.228 295.494,166.060 296.400,165.818 296.400 C 165.575 296.400,165.117 296.760,164.800 297.200 C 164.483 297.640,164.027 298.000,163.787 298.000 C 163.547 298.000,163.002 298.325,162.575 298.722 C 162.149 299.120,161.215 299.703,160.500 300.020 C 159.785 300.336,159.200 300.731,159.200 300.898 C 159.200 301.064,158.840 301.200,158.400 301.200 C 157.960 301.200,157.600 301.380,157.600 301.600 C 157.600 301.820,157.240 302.000,156.800 302.000 C 156.360 302.000,156.000 302.180,156.000 302.400 C 156.000 302.620,155.460 302.800,154.800 302.800 C 154.140 302.800,153.600 302.980,153.600 303.200 C 153.600 303.420,152.880 303.600,152.000 303.600 C 151.120 303.600,150.400 303.780,150.400 304.000 C 150.400 304.220,149.601 304.400,148.624 304.400 C 147.647 304.400,146.736 304.580,146.600 304.800 C 146.455 305.035,144.129 305.200,140.976 305.200 C 137.659 305.200,135.600 305.047,135.600 304.800 C 135.600 304.580,134.700 304.400,133.600 304.400 C 132.500 304.400,131.600 304.220,131.600 304.000 C 131.600 303.780,131.060 303.600,130.400 303.600 C 129.740 303.600,129.200 303.420,129.200 303.200 C 129.200 302.980,128.660 302.800,128.000 302.800 C 127.340 302.800,126.800 302.620,126.800 302.400 C 126.800 302.180,126.350 302.000,125.800 302.000 C 125.250 302.000,124.800 301.820,124.800 301.600 C 124.800 301.380,124.440 301.200,124.000 301.200 C 123.560 301.200,123.200 301.020,123.200 300.800 C 123.200 300.580,122.922 300.400,122.583 300.400 C 122.244 300.400,121.580 300.040,121.108 299.600 C 120.636 299.160,120.013 298.800,119.725 298.800 C 119.436 298.800,119.200 298.650,119.200 298.468 C 119.200 298.285,118.705 297.881,118.100 297.570 C 117.495 297.260,116.730 296.729,116.400 296.391 C 116.070 296.054,114.990 295.157,114.000 294.399 C 113.010 293.641,112.110 292.906,112.000 292.766 C 110.967 291.452,102.000 290.363,102.000 291.551  M -25 0 L -5 0 L -5 20 L -25 20 Z M 405 0 L 425 0 L 425 20 L 405 20 Z" stroke="none" fill="#04048c" fill-rule="evenodd" transform="translate(30,0)"></path><path id="path1" d="M240.800 0.435 C 239.150 0.627,236.720 0.894,235.400 1.027 C 234.080 1.161,232.829 1.435,232.620 1.635 C 232.411 1.836,231.466 2.000,230.520 2.000 C 229.574 2.000,228.800 2.180,228.800 2.400 C 228.800 2.620,228.080 2.800,227.200 2.800 C 226.320 2.800,225.600 2.980,225.600 3.200 C 225.600 3.420,224.880 3.600,224.000 3.600 C 223.120 3.600,222.400 3.780,222.400 4.000 C 222.400 4.220,221.680 4.400,220.800 4.400 C 219.920 4.400,219.200 4.580,219.200 4.800 C 219.200 5.020,218.660 5.200,218.000 5.200 C 217.340 5.200,216.800 5.380,216.800 5.600 C 216.800 5.820,216.260 6.000,215.600 6.000 C 214.940 6.000,214.400 6.180,214.400 6.400 C 214.400 6.620,213.860 6.800,213.200 6.800 C 212.540 6.800,212.000 6.980,212.000 7.200 C 212.000 7.420,211.561 7.600,211.024 7.600 C 210.487 7.600,209.936 7.780,209.800 8.000 C 209.664 8.220,209.124 8.400,208.600 8.400 C 208.076 8.400,207.534 8.583,207.396 8.807 C 207.258 9.030,206.990 9.117,206.800 9.000 C 206.610 8.883,206.364 8.934,206.253 9.114 C 206.142 9.294,205.139 9.690,204.025 9.993 C 202.911 10.296,202.000 10.692,202.000 10.872 C 202.000 11.053,201.640 11.200,201.200 11.200 C 200.760 11.200,200.400 11.380,200.400 11.600 C 200.400 11.820,200.128 12.000,199.795 12.000 C 199.462 12.000,198.877 12.159,198.495 12.353 C 198.113 12.548,197.260 12.952,196.600 13.253 C 195.940 13.553,195.310 13.889,195.200 13.999 C 195.000 14.200,192.195 15.729,190.503 16.560 C 190.010 16.802,189.605 17.135,189.603 17.300 C 189.601 17.465,189.240 17.600,188.800 17.600 C 188.360 17.600,188.000 17.780,188.000 18.000 C 188.000 18.220,187.680 18.400,187.288 18.400 C 186.897 18.400,186.317 18.760,186.000 19.200 C 185.683 19.640,185.103 20.000,184.712 20.000 C 184.320 20.000,184.000 20.180,184.000 20.400 C 184.000 20.620,183.764 20.800,183.475 20.800 C 183.187 20.800,182.602 21.115,182.175 21.500 C 181.749 21.885,180.905 22.455,180.300 22.768 C 179.695 23.080,179.200 23.485,179.200 23.668 C 179.200 23.850,179.020 24.000,178.801 24.000 C 178.399 24.000,174.655 26.550,173.671 27.493 C 173.381 27.772,172.982 28.000,172.785 28.000 C 172.588 28.000,171.797 28.630,171.027 29.400 C 170.257 30.170,169.456 30.800,169.248 30.800 C 169.040 30.800,167.773 31.880,166.432 33.200 C 165.092 34.520,163.871 35.600,163.720 35.600 C 163.569 35.600,161.185 37.928,158.422 40.773 C 150.865 48.557,148.800 50.779,148.800 51.127 C 148.800 51.301,148.170 52.131,147.400 52.972 C 146.630 53.813,146.000 54.650,146.000 54.832 C 146.000 55.014,145.595 55.578,145.100 56.084 C 143.952 57.258,142.000 60.123,142.000 60.633 C 142.000 60.848,141.640 61.283,141.200 61.600 C 140.760 61.917,140.400 62.457,140.400 62.800 C 140.400 63.143,140.040 63.683,139.600 64.000 C 139.160 64.317,138.800 64.857,138.800 65.200 C 138.800 65.543,138.440 66.083,138.000 66.400 C 137.560 66.717,137.200 67.297,137.200 67.688 C 137.200 68.080,137.020 68.400,136.800 68.400 C 136.580 68.400,136.400 68.760,136.400 69.200 C 136.400 69.640,136.242 70.000,136.049 70.000 C 135.855 70.000,135.473 70.540,135.200 71.200 C 134.927 71.860,134.545 72.400,134.351 72.400 C 134.158 72.400,134.000 72.760,134.000 73.200 C 134.000 73.640,133.820 74.000,133.600 74.000 C 133.380 74.000,133.200 74.345,133.200 74.767 C 133.200 75.188,133.063 75.593,132.896 75.667 C 132.729 75.740,131.811 77.420,130.855 79.400 C 129.900 81.380,128.957 83.313,128.759 83.695 C 128.562 84.077,128.400 84.662,128.400 84.995 C 128.400 85.328,128.220 85.600,128.000 85.600 C 127.780 85.600,127.600 85.949,127.600 86.376 C 127.600 86.803,127.420 87.264,127.200 87.400 C 126.980 87.536,126.800 88.072,126.800 88.590 C 126.800 89.109,126.665 89.593,126.500 89.667 C 126.071 89.857,124.796 93.630,124.798 94.700 C 124.799 95.195,124.620 95.600,124.400 95.600 C 124.180 95.600,124.000 96.140,124.000 96.800 C 124.000 97.460,123.820 98.000,123.600 98.000 C 123.380 98.000,123.200 98.540,123.200 99.200 C 123.200 99.860,123.020 100.400,122.800 100.400 C 122.580 100.400,122.400 101.120,122.400 102.000 C 122.400 102.880,122.220 103.600,122.000 103.600 C 121.780 103.600,121.600 104.219,121.600 104.976 C 121.600 105.733,121.420 106.464,121.200 106.600 C 120.980 106.736,120.800 107.456,120.800 108.200 C 120.800 108.944,120.620 109.664,120.400 109.800 C 120.180 109.936,120.000 110.836,120.000 111.800 C 120.000 112.764,119.820 113.664,119.600 113.800 C 119.380 113.936,119.200 114.847,119.200 115.824 C 119.200 116.801,119.020 117.600,118.800 117.600 C 118.109 117.600,118.365 118.335,119.141 118.581 C 119.549 118.711,122.474 118.517,125.641 118.151 C 132.580 117.349,149.549 117.223,155.200 117.932 C 162.994 118.909,166.323 119.442,170.600 120.399 C 176.068 121.621,179.490 122.495,180.095 122.823 C 180.477 123.030,181.231 123.200,181.771 123.200 C 182.311 123.200,182.864 123.380,183.000 123.600 C 183.136 123.820,183.676 124.000,184.200 124.000 C 184.724 124.000,185.264 124.180,185.400 124.400 C 185.536 124.620,185.999 124.800,186.429 124.800 C 186.859 124.800,187.568 124.980,188.005 125.200 C 188.442 125.420,189.158 125.780,189.595 126.000 C 190.032 126.220,190.664 126.400,191.000 126.400 C 191.336 126.400,191.923 126.559,192.305 126.753 C 192.687 126.948,193.450 127.297,194.000 127.529 C 194.550 127.761,196.957 128.862,199.348 129.975 C 201.740 131.089,203.770 132.000,203.860 132.000 C 204.023 132.000,210.466 135.498,213.319 137.136 C 215.099 138.158,223.308 143.618,223.600 143.974 C 223.710 144.109,224.250 144.504,224.800 144.853 C 230.364 148.387,245.042 162.313,250.845 169.565 L 253.857 173.330 258.629 173.425 C 261.253 173.478,264.840 173.731,266.600 173.988 C 268.360 174.245,270.476 174.552,271.303 174.670 C 272.129 174.788,272.905 175.045,273.026 175.242 C 273.148 175.439,273.766 175.600,274.400 175.600 C 275.034 175.600,275.664 175.780,275.800 176.000 C 275.936 176.220,276.399 176.400,276.829 176.400 C 277.259 176.400,277.923 176.559,278.305 176.753 C 278.687 176.948,279.450 177.289,280.000 177.512 C 288.306 180.878,297.485 187.174,300.530 191.592 C 304.207 196.928,300.372 204.000,293.800 204.000 C 291.129 204.000,290.010 203.472,286.928 200.759 C 282.978 197.282,274.972 192.400,273.220 192.400 C 272.983 192.400,272.477 192.242,272.095 192.049 C 270.915 191.453,268.588 190.800,267.645 190.800 C 267.151 190.800,266.399 190.614,265.974 190.386 C 264.792 189.754,264.974 190.359,267.389 195.102 C 269.800 199.836,271.388 203.347,272.770 207.000 C 273.914 210.025,274.401 211.218,274.847 212.095 C 275.041 212.477,275.200 213.064,275.200 213.400 C 275.200 213.736,275.362 214.323,275.561 214.705 C 275.760 215.087,276.140 216.210,276.407 217.200 C 276.673 218.190,277.037 219.360,277.215 219.800 C 277.394 220.240,277.631 221.050,277.742 221.600 C 277.853 222.150,278.139 223.320,278.378 224.200 C 282.237 238.439,283.649 258.945,281.829 274.311 C 281.154 280.014,281.242 282.118,282.120 281.240 C 282.362 280.998,283.424 280.800,284.480 280.800 C 285.536 280.800,286.400 280.620,286.400 280.400 C 286.400 280.180,287.199 280.000,288.176 280.000 C 289.153 280.000,290.064 279.820,290.200 279.600 C 290.336 279.380,291.056 279.200,291.800 279.200 C 292.544 279.200,293.264 279.020,293.400 278.800 C 293.536 278.580,294.267 278.400,295.024 278.400 C 295.781 278.400,296.400 278.220,296.400 278.000 C 296.400 277.780,297.120 277.600,298.000 277.600 C 298.880 277.600,299.600 277.420,299.600 277.200 C 299.600 276.980,300.140 276.800,300.800 276.800 C 301.460 276.800,302.000 276.620,302.000 276.400 C 302.000 276.180,302.540 276.000,303.200 276.000 C 303.860 276.000,304.400 275.820,304.400 275.600 C 304.400 275.380,304.706 275.200,305.080 275.200 C 306.162 275.200,310.400 273.855,310.400 273.511 C 310.400 273.340,310.839 273.200,311.376 273.200 C 311.913 273.200,312.464 273.020,312.600 272.800 C 312.736 272.580,313.197 272.400,313.624 272.400 C 314.051 272.400,314.400 272.264,314.400 272.098 C 314.400 271.932,315.030 271.572,315.800 271.298 C 316.570 271.024,317.830 270.576,318.600 270.302 C 319.370 270.028,320.000 269.668,320.000 269.502 C 320.000 269.336,320.360 269.200,320.800 269.200 C 321.240 269.200,321.600 269.020,321.600 268.800 C 321.600 268.580,321.870 268.400,322.200 268.400 C 322.530 268.400,322.800 268.220,322.800 268.000 C 322.800 267.780,323.160 267.600,323.600 267.600 C 324.040 267.600,324.400 267.420,324.400 267.200 C 324.400 266.980,324.760 266.800,325.200 266.800 C 325.640 266.800,326.000 266.620,326.000 266.400 C 326.000 266.180,326.360 266.000,326.800 266.000 C 327.240 266.000,327.600 265.842,327.600 265.649 C 327.600 265.455,328.140 265.073,328.800 264.800 C 329.460 264.527,330.000 264.145,330.000 263.951 C 330.000 263.758,330.360 263.600,330.800 263.600 C 331.240 263.600,331.600 263.420,331.600 263.200 C 331.600 262.980,331.836 262.800,332.125 262.800 C 332.413 262.800,333.036 262.440,333.508 262.000 C 333.980 261.560,334.644 261.200,334.983 261.200 C 335.322 261.200,335.600 261.050,335.600 260.868 C 335.600 260.685,336.095 260.281,336.700 259.970 C 337.305 259.660,338.091 259.089,338.447 258.703 C 338.803 258.316,339.272 258.000,339.489 258.000 C 339.941 258.000,343.731 255.201,343.933 254.718 C 344.007 254.543,344.295 254.400,344.574 254.400 C 344.853 254.400,345.603 253.903,346.241 253.296 C 346.878 252.688,348.022 251.750,348.781 251.210 C 352.182 248.796,368.400 232.580,368.400 231.594 C 368.400 231.377,368.580 231.200,368.800 231.200 C 369.020 231.200,369.200 231.002,369.200 230.760 C 369.200 230.519,369.740 229.817,370.400 229.200 C 371.060 228.583,371.600 227.915,371.600 227.715 C 371.600 227.515,371.915 227.002,372.300 226.575 C 373.623 225.109,375.200 222.853,375.200 222.427 C 375.200 222.192,375.380 222.000,375.600 222.000 C 375.820 222.000,376.000 221.730,376.000 221.400 C 376.000 221.070,376.150 220.800,376.332 220.800 C 376.515 220.800,376.920 220.305,377.232 219.700 C 377.545 219.095,378.115 218.251,378.500 217.825 C 378.885 217.398,379.200 216.813,379.200 216.525 C 379.200 216.236,379.380 216.000,379.600 216.000 C 379.820 216.000,380.000 215.680,380.000 215.288 C 380.000 214.897,380.360 214.317,380.800 214.000 C 381.240 213.683,381.600 213.103,381.600 212.712 C 381.600 212.320,381.780 212.000,382.000 212.000 C 382.220 212.000,382.400 211.640,382.400 211.200 C 382.400 210.760,382.580 210.400,382.800 210.400 C 383.020 210.400,383.200 210.040,383.200 209.600 C 383.200 209.160,383.335 208.799,383.500 208.797 C 383.665 208.795,383.999 208.390,384.241 207.897 C 384.484 207.404,385.249 205.947,385.941 204.659 C 386.634 203.372,387.200 202.067,387.200 201.759 C 387.200 201.452,387.380 201.200,387.600 201.200 C 387.820 201.200,388.000 200.840,388.000 200.400 C 388.000 199.960,388.180 199.600,388.400 199.600 C 388.620 199.600,388.800 199.364,388.800 199.075 C 388.800 198.786,389.160 197.805,389.600 196.894 C 390.040 195.984,390.400 194.971,390.400 194.643 C 390.400 194.315,390.583 193.934,390.807 193.796 C 391.030 193.658,391.117 193.390,391.000 193.200 C 390.883 193.010,390.970 192.742,391.193 192.604 C 391.417 192.466,391.600 191.924,391.600 191.400 C 391.600 190.876,391.780 190.336,392.000 190.200 C 392.220 190.064,392.400 189.513,392.400 188.976 C 392.400 188.439,392.580 188.000,392.800 188.000 C 393.020 188.000,393.200 187.460,393.200 186.800 C 393.200 186.140,393.380 185.600,393.600 185.600 C 393.820 185.600,394.000 185.060,394.000 184.400 C 394.000 183.740,394.180 183.200,394.400 183.200 C 394.620 183.200,394.800 182.660,394.800 182.000 C 394.800 181.340,394.980 180.800,395.200 180.800 C 395.420 180.800,395.600 180.080,395.600 179.200 C 395.600 178.320,395.780 177.600,396.000 177.600 C 396.220 177.600,396.400 176.880,396.400 176.000 C 396.400 175.120,396.580 174.400,396.800 174.400 C 397.020 174.400,397.200 173.691,397.200 172.824 C 397.200 171.957,397.380 171.136,397.600 171.000 C 397.820 170.864,398.000 169.953,398.000 168.976 C 398.000 167.999,398.164 167.200,398.364 167.200 C 398.565 167.200,398.826 166.165,398.945 164.900 C 399.064 163.635,399.363 160.620,399.609 158.200 C 400.229 152.104,399.955 120.318,399.281 120.094 C 398.979 119.993,398.800 119.054,398.800 117.567 C 398.800 116.256,398.622 115.200,398.400 115.200 C 398.180 115.200,398.000 114.300,398.000 113.200 C 398.000 112.100,397.820 111.200,397.600 111.200 C 397.380 111.200,397.200 110.491,397.200 109.624 C 397.200 108.757,397.020 107.936,396.800 107.800 C 396.580 107.664,396.400 106.843,396.400 105.976 C 396.400 105.109,396.220 104.400,396.000 104.400 C 395.780 104.400,395.600 103.860,395.600 103.200 C 395.600 102.540,395.420 102.000,395.200 102.000 C 394.980 102.000,394.800 101.280,394.800 100.400 C 394.800 99.520,394.620 98.800,394.400 98.800 C 394.180 98.800,394.000 98.260,394.000 97.600 C 394.000 96.940,393.820 96.400,393.600 96.400 C 393.380 96.400,393.200 95.961,393.200 95.424 C 393.200 94.887,393.020 94.336,392.800 94.200 C 392.580 94.064,392.400 93.513,392.400 92.976 C 392.400 92.439,392.220 92.000,392.000 92.000 C 391.780 92.000,391.600 91.784,391.600 91.520 C 391.600 90.588,390.219 86.400,389.911 86.400 C 389.740 86.400,389.594 86.085,389.587 85.700 C 389.581 85.315,389.041 83.925,388.387 82.610 C 387.734 81.296,387.200 79.991,387.200 79.710 C 387.200 79.430,387.065 79.199,386.900 79.199 C 386.735 79.198,386.150 78.208,385.600 77.000 C 385.050 75.792,384.465 74.802,384.300 74.801 C 384.135 74.801,384.000 74.440,384.000 74.000 C 384.000 73.560,383.820 73.200,383.600 73.200 C 383.380 73.200,383.200 72.922,383.200 72.583 C 383.200 72.244,382.840 71.580,382.400 71.108 C 381.960 70.636,381.600 70.013,381.600 69.725 C 381.600 69.436,381.420 69.200,381.200 69.200 C 380.980 69.200,380.800 68.922,380.800 68.583 C 380.800 68.244,380.440 67.580,380.000 67.108 C 379.560 66.636,379.200 66.013,379.200 65.725 C 379.200 65.436,379.020 65.200,378.800 65.200 C 378.580 65.200,378.400 64.964,378.400 64.675 C 378.400 64.387,378.085 63.802,377.700 63.375 C 377.315 62.949,376.745 62.105,376.432 61.500 C 376.120 60.895,375.715 60.400,375.532 60.400 C 375.350 60.400,375.200 60.207,375.200 59.971 C 375.200 59.736,374.975 59.292,374.700 58.985 C 373.539 57.691,373.200 57.214,373.200 56.876 C 373.200 56.680,372.660 55.954,372.000 55.263 C 371.340 54.572,370.800 53.847,370.800 53.652 C 370.800 53.456,370.124 52.600,369.298 51.748 C 368.472 50.897,367.371 49.602,366.851 48.872 C 366.331 48.142,364.669 46.342,363.156 44.872 C 359.714 41.527,358.473 40.286,355.128 36.844 C 353.658 35.331,351.858 33.669,351.128 33.150 C 350.398 32.631,349.081 31.530,348.202 30.703 C 347.323 29.876,346.467 29.200,346.299 29.200 C 346.130 29.200,345.428 28.660,344.737 28.000 C 344.046 27.340,343.281 26.800,343.037 26.800 C 342.792 26.800,342.107 26.350,341.513 25.800 C 340.920 25.250,340.247 24.800,340.017 24.800 C 339.788 24.800,339.600 24.650,339.600 24.468 C 339.600 24.285,339.105 23.880,338.500 23.568 C 337.895 23.255,337.051 22.685,336.625 22.300 C 336.198 21.915,335.613 21.600,335.325 21.600 C 335.036 21.600,334.800 21.420,334.800 21.200 C 334.800 20.980,334.564 20.800,334.275 20.800 C 333.987 20.800,333.364 20.440,332.892 20.000 C 332.420 19.560,331.756 19.200,331.417 19.200 C 331.078 19.200,330.800 19.042,330.800 18.849 C 330.800 18.655,330.260 18.273,329.600 18.000 C 328.940 17.727,328.400 17.345,328.400 17.151 C 328.400 16.958,328.040 16.800,327.600 16.800 C 327.160 16.800,326.800 16.620,326.800 16.400 C 326.800 16.180,326.440 16.000,326.000 16.000 C 325.560 16.000,325.199 15.865,325.199 15.700 C 325.198 15.535,324.208 14.950,323.000 14.400 C 321.792 13.850,320.802 13.265,320.801 13.100 C 320.801 12.935,320.570 12.800,320.290 12.800 C 320.009 12.800,318.704 12.266,317.390 11.613 C 316.075 10.959,314.685 10.419,314.300 10.413 C 313.915 10.406,313.600 10.260,313.600 10.089 C 313.600 9.781,309.412 8.400,308.480 8.400 C 308.216 8.400,308.000 8.220,308.000 8.000 C 308.000 7.780,307.561 7.600,307.024 7.600 C 306.487 7.600,305.936 7.420,305.800 7.200 C 305.664 6.980,305.113 6.800,304.576 6.800 C 304.039 6.800,303.600 6.620,303.600 6.400 C 303.600 6.180,303.060 6.000,302.400 6.000 C 301.740 6.000,301.200 5.820,301.200 5.600 C 301.200 5.380,300.480 5.200,299.600 5.200 C 298.720 5.200,298.000 5.020,298.000 4.800 C 298.000 4.580,297.460 4.400,296.800 4.400 C 296.140 4.400,295.600 4.220,295.600 4.000 C 295.600 3.780,294.891 3.600,294.024 3.600 C 293.157 3.600,292.336 3.420,292.200 3.200 C 292.064 2.980,291.243 2.800,290.376 2.800 C 289.509 2.800,288.800 2.620,288.800 2.400 C 288.800 2.180,287.900 2.000,286.800 2.000 C 285.700 2.000,284.800 1.820,284.800 1.600 C 284.800 1.378,283.744 1.200,282.433 1.200 C 280.928 1.200,280.008 1.023,279.904 0.712 C 279.706 0.118,245.600 -0.124,240.800 0.435 M182.437 78.500 C 183.331 78.775,185.083 79.866,186.331 80.925 C 189.258 83.409,193.444 85.392,197.100 86.025 C 202.520 86.965,208.845 85.018,213.669 80.925 C 217.122 77.996,219.882 77.364,222.904 78.813 C 231.850 83.100,228.609 92.748,216.202 98.764 C 213.266 100.188,211.544 100.786,206.954 101.974 C 204.822 102.526,195.178 102.526,193.046 101.974 C 188.350 100.758,186.717 100.183,183.657 98.667 C 172.920 93.346,168.611 84.423,174.740 80.200 C 177.855 78.054,179.679 77.651,182.437 78.500 M299.905 78.353 C 300.287 78.548,301.050 78.917,301.600 79.175 C 302.150 79.432,303.410 80.375,304.400 81.269 C 311.750 87.912,322.722 87.831,331.170 81.073 C 341.148 73.090,351.288 84.307,342.067 93.127 C 331.407 103.324,311.211 105.624,299.938 97.925 C 299.354 97.526,298.713 97.200,298.514 97.200 C 298.314 97.200,297.802 96.885,297.375 96.500 C 296.948 96.115,295.893 95.272,295.029 94.626 C 292.785 92.948,290.400 90.320,290.400 89.526 C 290.400 89.153,290.220 88.736,290.000 88.600 C 288.663 87.773,290.113 82.360,292.197 80.403 C 294.282 78.444,298.092 77.431,299.905 78.353  M -25 0 L -5 0 L -5 20 L -25 20 Z M 405 0 L 425 0 L 425 20 L 405 20 Z" stroke="none" fill="#e3c3fb" fill-rule="evenodd" transform="translate(490,0)"></path><path id="path2" d="M177.724 78.679 C 177.242 78.773,176.072 79.575,175.124 80.462 L 173.400 82.074 175.153 80.653 C 176.371 79.666,177.468 79.160,178.753 78.991 C 179.769 78.858,180.870 78.691,181.200 78.621 C 182.108 78.427,178.731 78.483,177.724 78.679 M218.800 78.621 C 219.130 78.691,220.231 78.858,221.247 78.991 C 222.532 79.160,223.629 79.666,224.847 80.653 L 226.600 82.074 224.906 80.488 C 223.206 78.896,221.773 78.360,219.450 78.446 C 218.763 78.472,218.470 78.550,218.800 78.621 M297.105 78.683 C 297.602 78.779,298.322 78.775,298.705 78.675 C 299.087 78.575,298.680 78.496,297.800 78.501 C 296.920 78.505,296.607 78.587,297.105 78.683 M335.400 78.685 C 334.960 78.791,334.442 79.027,334.250 79.209 C 334.057 79.391,334.639 79.353,335.542 79.124 C 338.180 78.454,340.457 79.009,342.666 80.859 L 344.600 82.479 342.721 80.694 C 340.504 78.587,338.311 77.985,335.400 78.685 M215.934 79.502 C 215.348 79.886,214.088 80.848,213.134 81.639 C 212.180 82.431,210.590 83.554,209.600 84.136 C 208.610 84.717,207.990 85.194,208.222 85.196 C 208.860 85.202,212.401 82.880,214.142 81.313 C 214.990 80.550,216.250 79.680,216.942 79.379 C 217.634 79.078,217.930 78.825,217.600 78.818 C 217.270 78.810,216.520 79.118,215.934 79.502 M294.200 79.267 C 293.012 79.924,291.580 81.293,291.131 82.200 C 290.913 82.640,291.230 82.392,291.836 81.650 C 292.441 80.907,293.671 79.966,294.568 79.559 C 295.466 79.151,295.930 78.819,295.600 78.821 C 295.270 78.823,294.640 79.023,294.200 79.267 M301.000 79.606 C 301.880 80.040,303.671 81.296,304.980 82.398 C 306.289 83.499,307.549 84.394,307.780 84.387 C 308.011 84.380,307.906 84.155,307.547 83.887 C 306.807 83.336,303.726 81.051,301.899 79.700 C 301.229 79.205,300.393 78.804,300.041 78.809 C 299.688 78.814,300.120 79.173,301.000 79.606 M185.215 80.820 C 187.022 82.412,191.202 85.202,191.762 85.191 C 192.003 85.186,191.280 84.646,190.155 83.990 C 189.030 83.334,187.292 82.078,186.293 81.199 C 185.294 80.319,184.332 79.600,184.154 79.600 C 183.976 79.600,184.453 80.149,185.215 80.820 M331.393 81.234 C 328.950 83.238,328.186 84.024,329.800 82.874 C 331.403 81.732,333.852 79.624,333.593 79.611 C 333.479 79.605,332.489 80.336,331.393 81.234 M344.412 83.200 C 344.412 83.530,344.587 84.070,344.800 84.400 C 345.145 84.933,345.188 84.933,345.188 84.400 C 345.188 84.070,345.013 83.530,344.800 83.200 C 344.455 82.667,344.412 82.667,344.412 83.200 M290.229 84.229 C 290.081 84.815,290.038 85.372,290.132 85.466 C 290.227 85.560,290.424 85.158,290.571 84.571 C 290.719 83.985,290.762 83.428,290.668 83.334 C 290.573 83.240,290.376 83.642,290.229 84.229 M326.800 84.400 C 326.030 84.822,325.544 85.174,325.720 85.183 C 326.144 85.205,328.400 84.032,328.400 83.790 C 328.400 83.528,328.377 83.537,326.800 84.400 M172.524 86.200 C 172.526 87.520,172.601 88.012,172.690 87.293 C 172.779 86.574,172.777 85.494,172.686 84.893 C 172.595 84.292,172.522 84.880,172.524 86.200 M227.324 86.200 C 227.326 87.520,227.401 88.012,227.490 87.293 C 227.579 86.574,227.577 85.494,227.486 84.893 C 227.395 84.292,227.322 84.880,227.324 86.200 M195.400 86.380 C 196.161 86.726,199.117 86.964,198.767 86.651 C 198.675 86.569,197.700 86.393,196.600 86.259 C 195.254 86.095,194.861 86.135,195.400 86.380 M202.400 86.400 L 201.000 86.695 202.400 86.741 C 203.170 86.767,204.070 86.613,204.400 86.400 C 205.127 85.930,204.633 85.930,202.400 86.400 M313.200 86.388 C 313.530 86.608,314.415 86.791,315.167 86.794 C 316.960 86.802,316.641 86.575,314.400 86.250 C 313.142 86.067,312.781 86.109,313.200 86.388 M320.200 86.400 L 318.600 86.686 320.000 86.715 C 320.770 86.731,321.760 86.589,322.200 86.400 C 323.143 85.995,322.462 85.995,320.200 86.400 M290.199 87.909 C 290.358 89.038,292.400 92.721,292.400 91.879 C 292.400 91.710,292.085 91.096,291.700 90.514 C 291.315 89.932,290.778 88.814,290.507 88.028 L 290.014 86.600 290.199 87.909 M172.801 89.022 C 172.798 90.112,176.081 93.466,179.400 95.763 L 181.000 96.871 179.635 95.735 C 176.479 93.111,174.235 90.925,173.542 89.800 C 173.136 89.140,172.802 88.790,172.801 89.022 M226.626 89.519 C 226.390 90.262,223.320 93.308,220.372 95.724 L 219.000 96.849 220.400 95.947 C 223.615 93.875,227.718 89.584,227.086 88.953 C 226.969 88.836,226.762 89.091,226.626 89.519 M342.060 92.251 C 341.543 92.802,341.196 93.329,341.289 93.422 C 341.382 93.515,341.974 93.054,342.604 92.396 C 343.234 91.738,343.581 91.211,343.375 91.224 C 343.169 91.238,342.577 91.700,342.060 92.251 M294.843 94.017 C 296.563 95.642,300.000 97.941,300.000 97.467 C 300.000 97.366,299.055 96.680,297.900 95.942 C 296.745 95.204,295.152 94.061,294.359 93.400 C 293.566 92.740,293.784 93.018,294.843 94.017 M339.185 94.832 L 337.800 96.063 339.088 95.213 C 340.230 94.459,341.093 93.600,340.708 93.600 C 340.632 93.600,339.947 94.154,339.185 94.832 M181.200 96.990 C 181.200 97.094,181.785 97.465,182.500 97.814 L 183.800 98.448 182.800 97.633 C 181.837 96.848,181.200 96.592,181.200 96.990 M216.200 98.034 C 215.100 98.665,214.341 99.186,214.513 99.191 C 214.950 99.204,218.800 97.230,218.800 96.993 C 218.800 96.642,218.222 96.873,216.200 98.034 M335.100 97.429 C 333.605 98.240,333.696 98.578,335.200 97.800 C 335.860 97.459,336.400 97.094,336.400 96.990 C 336.400 96.732,336.357 96.747,335.100 97.429 M331.400 99.222 C 330.520 99.638,330.070 99.976,330.400 99.973 C 330.730 99.969,331.630 99.622,332.400 99.200 C 334.196 98.217,333.492 98.232,331.400 99.222 M191.000 101.200 C 191.440 101.389,192.160 101.538,192.600 101.532 C 193.243 101.523,193.204 101.457,192.400 101.200 C 191.032 100.762,189.981 100.762,191.000 101.200 M207.600 101.200 C 206.796 101.457,206.757 101.523,207.400 101.532 C 207.840 101.538,208.560 101.389,209.000 101.200 C 210.019 100.762,208.968 100.762,207.600 101.200 M308.600 101.200 C 309.040 101.389,309.760 101.538,310.200 101.532 C 310.843 101.523,310.804 101.457,310.000 101.200 C 308.632 100.762,307.581 100.762,308.600 101.200 M325.200 101.200 C 324.396 101.457,324.357 101.523,325.000 101.532 C 325.440 101.538,326.160 101.389,326.600 101.200 C 327.619 100.762,326.568 100.762,325.200 101.200 M195.023 102.053 C 195.670 102.192,197.910 102.305,200.000 102.305 C 202.090 102.305,204.330 102.192,204.977 102.053 C 205.625 101.914,203.385 101.800,200.000 101.800 C 196.615 101.800,194.375 101.914,195.023 102.053 M312.876 102.060 C 314.052 102.391,321.024 102.386,322.577 102.053 C 323.225 101.914,321.099 101.800,317.854 101.800 C 314.608 101.800,312.368 101.917,312.876 102.060 M138.700 117.897 C 140.295 117.973,142.905 117.973,144.500 117.897 C 146.095 117.821,144.790 117.759,141.600 117.759 C 138.410 117.759,137.105 117.821,138.700 117.897 M126.400 118.400 L 125.000 118.695 126.400 118.712 C 127.170 118.722,128.700 118.590,129.800 118.418 L 131.800 118.107 129.800 118.106 C 128.700 118.106,127.170 118.238,126.400 118.400 M153.000 118.418 C 155.844 118.861,157.988 118.830,155.800 118.377 C 154.920 118.195,153.480 118.060,152.600 118.076 C 151.033 118.106,151.041 118.113,153.000 118.418 M118.400 118.743 C 118.400 119.449,120.255 119.720,121.893 119.253 C 123.397 118.823,123.396 118.823,121.475 119.039 C 120.266 119.176,119.336 119.079,118.975 118.779 C 118.577 118.449,118.400 118.438,118.400 118.743 M160.000 119.200 C 160.550 119.376,161.540 119.517,162.200 119.513 L 163.400 119.505 162.200 119.200 C 161.540 119.032,160.550 118.891,160.000 118.887 L 159.000 118.880 160.000 119.200 M165.400 120.000 C 165.840 120.189,166.650 120.338,167.200 120.332 L 168.200 120.320 167.200 120.000 C 166.650 119.824,165.840 119.674,165.400 119.668 L 164.600 119.656 165.400 120.000 M169.400 120.800 C 169.840 120.989,170.560 121.144,171.000 121.144 L 171.800 121.144 171.000 120.800 C 170.560 120.611,169.840 120.456,169.400 120.456 L 168.600 120.456 169.400 120.800 M173.200 121.600 C 173.530 121.813,174.160 121.978,174.600 121.966 L 175.400 121.944 174.600 121.600 C 173.404 121.086,172.405 121.086,173.200 121.600 M176.400 122.382 C 176.730 122.605,177.345 122.791,177.767 122.794 C 178.790 122.802,178.471 122.573,177.000 122.244 C 176.124 122.048,175.962 122.085,176.400 122.382 M179.200 123.200 C 179.530 123.413,180.160 123.578,180.600 123.566 L 181.400 123.544 180.600 123.200 C 179.404 122.686,178.405 122.686,179.200 123.200 M182.000 123.982 C 182.330 124.205,182.945 124.391,183.367 124.394 C 184.390 124.402,184.071 124.173,182.600 123.844 C 181.724 123.648,181.562 123.685,182.000 123.982 M184.600 124.800 C 184.736 125.020,185.242 125.187,185.724 125.172 C 186.569 125.145,186.571 125.131,185.800 124.800 C 184.699 124.327,184.308 124.327,184.600 124.800 M186.953 125.486 C 187.283 125.817,190.065 126.794,190.600 126.769 C 191.065 126.746,189.519 126.075,187.846 125.572 C 187.211 125.381,186.809 125.342,186.953 125.486 M195.400 128.709 C 195.620 128.913,196.610 129.391,197.600 129.770 C 198.590 130.150,199.220 130.295,199.000 130.091 C 198.780 129.887,197.790 129.409,196.800 129.030 C 195.810 128.650,195.180 128.505,195.400 128.709 M202.833 132.152 C 203.241 132.524,207.200 134.393,207.200 134.213 C 207.200 133.988,203.380 132.000,202.947 132.000 C 202.793 132.000,202.742 132.068,202.833 132.152 M210.800 136.114 C 210.800 136.355,213.906 138.400,214.271 138.400 C 214.430 138.400,214.389 138.249,214.180 138.064 C 213.552 137.508,210.800 135.921,210.800 136.114 M216.200 139.487 C 216.831 140.124,222.800 144.047,222.800 143.824 C 222.800 143.714,221.495 142.751,219.900 141.683 C 216.601 139.474,215.599 138.880,216.200 139.487 M224.048 144.866 C 224.625 145.380,226.146 146.610,227.428 147.600 C 228.710 148.590,230.983 150.443,232.479 151.719 C 233.976 152.994,235.200 153.914,235.200 153.763 C 235.200 153.612,234.952 153.288,234.649 153.044 C 234.346 152.800,232.321 151.157,230.149 149.393 C 226.026 146.045,222.113 143.142,224.048 144.866 M235.600 154.023 C 235.600 154.308,245.718 164.415,245.861 164.273 C 245.922 164.211,243.639 161.832,240.786 158.986 C 237.934 156.140,235.600 153.907,235.600 154.023 M248.695 168.058 C 250.183 169.850,251.958 171.951,252.640 172.727 L 253.880 174.136 260.240 174.202 C 265.971 174.261,266.264 174.233,263.200 173.918 C 261.330 173.726,258.493 173.652,256.895 173.754 L 253.990 173.939 250.695 169.920 C 248.883 167.710,247.200 165.654,246.956 165.351 C 246.712 165.048,246.395 164.800,246.251 164.800 C 246.108 164.800,247.208 166.266,248.695 168.058 M268.000 174.800 C 268.550 174.976,269.450 175.117,270.000 175.113 C 270.898 175.106,270.878 175.074,269.800 174.800 C 268.108 174.369,266.656 174.369,268.000 174.800 M271.639 175.356 C 271.953 175.691,276.468 176.866,276.668 176.665 C 276.803 176.530,276.097 176.315,272.200 175.308 C 271.760 175.194,271.508 175.216,271.639 175.356 M277.200 176.946 C 277.200 177.026,278.055 177.410,279.100 177.801 C 280.145 178.191,282.575 179.291,284.500 180.247 C 288.196 182.081,289.193 182.335,286.260 180.696 C 283.253 179.015,277.200 176.510,277.200 176.946 M289.600 182.947 C 289.600 183.028,290.365 183.579,291.300 184.172 L 293.000 185.251 291.600 184.036 C 290.340 182.943,289.600 182.540,289.600 182.947 M294.423 186.400 C 295.009 186.950,296.415 188.199,297.545 189.175 C 302.207 193.200,302.466 199.224,298.106 202.186 C 297.286 202.744,296.774 203.200,296.969 203.200 C 297.774 203.200,300.061 201.048,300.804 199.593 C 302.747 195.784,301.460 191.971,296.968 188.226 C 294.150 185.878,292.938 185.008,294.423 186.400 M264.457 189.956 C 264.079 190.196,264.049 190.383,264.357 190.574 C 264.601 190.724,264.800 190.634,264.800 190.372 C 264.800 190.044,265.324 189.970,266.500 190.131 C 267.653 190.290,267.942 190.251,267.400 190.010 C 266.356 189.548,265.136 189.526,264.457 189.956 M268.433 190.544 C 268.525 190.623,269.140 190.808,269.800 190.956 C 270.676 191.152,270.838 191.115,270.400 190.818 C 269.860 190.453,268.032 190.198,268.433 190.544 M271.800 191.600 C 272.901 192.073,273.292 192.073,273.000 191.600 C 272.864 191.380,272.358 191.213,271.876 191.228 C 271.031 191.255,271.029 191.269,271.800 191.600 M267.084 195.786 C 267.897 197.428,268.627 198.707,268.706 198.627 C 268.885 198.449,266.065 192.800,265.798 192.800 C 265.693 192.800,266.271 194.144,267.084 195.786 M275.633 192.952 C 276.041 193.324,280.000 195.193,280.000 195.013 C 280.000 194.788,276.180 192.800,275.747 192.800 C 275.593 192.800,275.542 192.868,275.633 192.952 M280.400 195.347 C 280.400 195.428,281.165 195.979,282.100 196.572 L 283.800 197.651 282.400 196.436 C 281.140 195.343,280.400 194.940,280.400 195.347 M285.000 198.641 C 287.268 200.838,290.113 203.200,290.492 203.200 C 290.842 203.200,289.547 202.070,285.400 198.757 C 283.941 197.591,283.906 197.581,285.000 198.641 M270.230 202.400 C 270.609 203.390,271.087 204.380,271.291 204.600 C 271.495 204.820,271.350 204.190,270.970 203.200 C 270.591 202.210,270.113 201.220,269.909 201.000 C 269.705 200.780,269.850 201.410,270.230 202.400 M291.738 203.694 C 291.992 203.856,292.920 203.988,293.800 203.988 C 294.680 203.988,295.608 203.856,295.862 203.694 C 296.116 203.532,295.188 203.400,293.800 203.400 C 292.412 203.400,291.484 203.532,291.738 203.694 M273.231 209.400 C 273.206 209.935,274.183 212.717,274.514 213.047 C 274.658 213.191,274.619 212.789,274.428 212.154 C 273.925 210.481,273.254 208.935,273.231 209.400 M275.606 216.633 C 275.609 217.055,275.795 217.670,276.018 218.000 C 276.315 218.438,276.352 218.276,276.156 217.400 C 275.827 215.929,275.598 215.610,275.606 216.633 M276.434 219.400 C 276.422 219.840,276.587 220.470,276.800 220.800 C 277.314 221.595,277.314 220.596,276.800 219.400 L 276.456 218.600 276.434 219.400 M277.206 222.233 C 277.209 222.655,277.395 223.270,277.618 223.600 C 277.915 224.038,277.952 223.876,277.756 223.000 C 277.427 221.529,277.198 221.210,277.206 222.233 M278.006 225.433 C 278.009 225.855,278.195 226.470,278.418 226.800 C 278.715 227.238,278.752 227.076,278.556 226.200 C 278.227 224.729,277.998 224.410,278.006 225.433 M278.856 229.000 C 278.856 229.440,279.011 230.160,279.200 230.600 L 279.544 231.400 279.544 230.600 C 279.544 230.160,279.389 229.440,279.200 229.000 L 278.856 228.200 278.856 229.000 M279.628 232.833 C 279.644 233.365,279.819 234.160,280.019 234.600 C 280.271 235.158,280.307 234.915,280.138 233.800 C 279.855 231.943,279.587 231.436,279.628 232.833 M280.487 237.800 C 280.483 238.460,280.624 239.450,280.800 240.000 L 281.120 241.000 281.113 240.000 C 281.109 239.450,280.968 238.460,280.800 237.800 L 280.495 236.600 280.487 237.800 M281.276 244.000 C 281.267 244.770,281.403 246.210,281.580 247.200 L 281.900 249.000 281.927 247.400 C 281.942 246.520,281.805 245.080,281.623 244.200 L 281.292 242.600 281.276 244.000 M282.158 258.600 C 282.158 261.680,282.221 262.887,282.297 261.282 C 282.373 259.678,282.373 257.158,282.296 255.682 C 282.219 254.207,282.157 255.520,282.158 258.600 M281.412 271.412 C 281.255 273.088,281.216 274.550,281.326 274.660 C 281.436 274.770,281.655 273.488,281.812 271.812 C 281.969 270.136,282.007 268.674,281.897 268.564 C 281.787 268.454,281.569 269.736,281.412 271.412 M280.620 278.205 C 280.327 280.161,280.605 281.600,281.276 281.600 C 281.550 281.600,281.534 281.403,281.230 281.037 C 280.923 280.666,280.855 279.777,281.033 278.437 C 281.181 277.316,281.210 276.400,281.097 276.400 C 280.984 276.400,280.769 277.212,280.620 278.205  M -25 0 L -5 0 L -5 20 L -25 20 Z M 405 0 L 425 0 L 425 20 L 405 20 Z" stroke="none" fill="#7464c4" fill-rule="evenodd" transform="translate(950,0)"></path><path id="path3" d="M178.138 78.306 C 177.884 78.468,178.722 78.600,180.000 78.600 C 181.278 78.600,182.116 78.468,181.862 78.306 C 181.608 78.144,180.770 78.012,180.000 78.012 C 179.230 78.012,178.392 78.144,178.138 78.306 M218.138 78.306 C 217.884 78.468,218.722 78.600,220.000 78.600 C 221.278 78.600,222.116 78.468,221.862 78.306 C 221.608 78.144,220.770 78.012,220.000 78.012 C 219.230 78.012,218.392 78.144,218.138 78.306 M295.716 78.320 C 295.450 78.489,296.287 78.621,297.577 78.614 C 298.867 78.606,299.839 78.465,299.738 78.300 C 299.496 77.907,296.340 77.923,295.716 78.320 M335.738 78.306 C 335.484 78.468,336.322 78.600,337.600 78.600 C 338.878 78.600,339.716 78.468,339.462 78.306 C 339.208 78.144,338.370 78.012,337.600 78.012 C 336.830 78.012,335.992 78.144,335.738 78.306 M331.400 80.838 C 330.080 81.948,328.010 83.374,326.800 84.009 C 325.590 84.643,324.741 85.170,324.913 85.181 C 325.592 85.222,329.097 83.174,330.823 81.728 C 331.825 80.887,333.085 79.894,333.623 79.521 C 334.160 79.148,334.420 78.837,334.200 78.831 C 333.980 78.825,332.720 79.728,331.400 80.838 M174.785 80.113 C 173.885 80.827,172.400 83.039,172.402 83.662 C 172.404 83.958,172.685 83.660,173.028 83.000 C 173.370 82.340,174.123 81.305,174.700 80.700 C 175.797 79.551,175.836 79.280,174.785 80.113 M184.800 79.725 C 184.800 79.794,185.385 80.379,186.100 81.025 L 187.400 82.200 186.225 80.900 C 185.130 79.688,184.800 79.416,184.800 79.725 M213.775 80.900 L 212.600 82.200 213.900 81.025 C 214.615 80.379,215.200 79.794,215.200 79.725 C 215.200 79.416,214.870 79.688,213.775 80.900 M225.275 80.650 C 225.866 81.282,226.630 82.340,226.972 83.000 C 227.315 83.660,227.596 83.972,227.598 83.694 C 227.601 82.934,225.939 80.552,225.014 79.992 C 224.419 79.632,224.489 79.809,225.275 80.650 M303.371 80.697 C 304.015 81.409,304.630 81.904,304.738 81.796 C 304.845 81.688,304.858 81.555,304.767 81.500 C 304.675 81.445,304.060 80.951,303.400 80.401 L 302.200 79.403 303.371 80.697 M343.225 81.031 C 343.981 81.928,344.681 82.597,344.780 82.517 C 344.879 82.438,344.260 81.704,343.405 80.887 L 341.850 79.400 343.225 81.031 M190.000 83.845 C 190.000 84.233,194.436 85.999,195.311 85.959 C 196.001 85.927,195.932 85.853,195.000 85.626 C 194.340 85.466,192.945 84.954,191.900 84.490 C 190.855 84.025,190.000 83.735,190.000 83.845 M207.800 84.609 C 206.700 85.127,205.350 85.586,204.800 85.630 C 203.928 85.699,203.908 85.730,204.643 85.875 C 205.445 86.033,210.000 84.288,210.000 83.822 C 210.000 83.550,210.195 83.480,207.800 84.609 M289.867 83.867 C 289.500 84.234,289.529 88.309,289.900 88.537 C 290.065 88.638,290.200 87.568,290.200 86.160 C 290.200 84.752,290.185 83.600,290.167 83.600 C 290.148 83.600,290.013 83.720,289.867 83.867 M345.195 86.482 C 345.088 87.957,345.145 89.018,345.322 88.840 C 345.499 88.662,345.586 87.455,345.517 86.158 L 345.390 83.800 345.195 86.482 M309.200 84.631 C 309.200 84.901,311.278 85.656,311.476 85.457 C 311.567 85.367,311.092 85.101,310.420 84.867 C 309.749 84.633,309.200 84.527,309.200 84.631 M172.109 86.400 C 172.109 87.390,172.187 87.795,172.282 87.300 C 172.378 86.805,172.378 85.995,172.282 85.500 C 172.187 85.005,172.109 85.410,172.109 86.400 M227.709 86.400 C 227.709 87.390,227.787 87.795,227.882 87.300 C 227.978 86.805,227.978 85.995,227.882 85.500 C 227.787 85.005,227.709 85.410,227.709 86.400 M321.800 85.816 L 319.800 86.356 321.600 86.133 C 322.590 86.010,323.670 85.756,324.000 85.567 C 324.814 85.102,324.182 85.174,321.800 85.816 M199.300 86.676 C 199.685 86.776,200.315 86.776,200.700 86.676 C 201.085 86.575,200.770 86.493,200.000 86.493 C 199.230 86.493,198.915 86.575,199.300 86.676 M316.900 86.676 C 317.285 86.776,317.915 86.776,318.300 86.676 C 318.685 86.575,318.370 86.493,317.600 86.493 C 316.830 86.493,316.515 86.575,316.900 86.676 M290.400 89.938 C 290.400 90.124,290.788 90.619,291.262 91.038 L 292.124 91.800 291.416 90.700 C 290.686 89.566,290.400 89.351,290.400 89.938 M223.951 93.231 L 222.200 94.862 224.100 93.346 C 225.145 92.513,226.000 91.779,226.000 91.715 C 226.000 91.407,225.563 91.730,223.951 93.231 M292.489 92.500 C 294.686 94.509,295.356 94.945,294.022 93.496 C 293.263 92.673,292.486 92.000,292.293 92.000 C 292.100 92.000,292.189 92.225,292.489 92.500 M175.200 92.525 C 175.200 92.594,175.785 93.179,176.500 93.825 L 177.800 95.000 176.625 93.700 C 175.530 92.488,175.200 92.216,175.200 92.525 M339.000 95.235 C 337.900 96.098,335.886 97.385,334.525 98.094 C 333.164 98.803,332.111 99.444,332.186 99.519 C 332.545 99.879,337.978 96.630,340.531 94.530 C 342.437 92.962,341.129 93.564,339.000 95.235 M178.473 95.426 C 178.843 95.852,179.743 96.541,180.473 96.957 C 182.039 97.850,181.626 97.407,179.400 95.804 C 178.469 95.134,178.082 94.976,178.473 95.426 M219.407 96.622 C 218.311 97.380,217.559 98.000,217.735 98.000 C 218.118 98.000,221.600 95.640,221.600 95.381 C 221.600 95.111,221.559 95.134,219.407 96.622 M300.000 97.964 C 300.891 98.671,302.400 99.324,302.400 99.003 C 302.400 98.936,301.635 98.496,300.700 98.025 C 299.133 97.237,299.078 97.232,300.000 97.964 M189.800 101.200 C 190.240 101.389,190.870 101.544,191.200 101.544 C 191.578 101.544,191.504 101.417,191.000 101.200 C 190.560 101.011,189.930 100.856,189.600 100.856 C 189.222 100.856,189.296 100.983,189.800 101.200 M209.000 101.200 C 208.496 101.417,208.422 101.544,208.800 101.544 C 209.130 101.544,209.760 101.389,210.200 101.200 C 210.704 100.983,210.778 100.856,210.400 100.856 C 210.070 100.856,209.440 101.011,209.000 101.200 M307.400 101.200 C 307.840 101.389,308.470 101.544,308.800 101.544 C 309.178 101.544,309.104 101.417,308.600 101.200 C 308.160 101.011,307.530 100.856,307.200 100.856 C 306.822 100.856,306.896 100.983,307.400 101.200 M326.600 101.200 C 326.096 101.417,326.022 101.544,326.400 101.544 C 326.730 101.544,327.360 101.389,327.800 101.200 C 328.304 100.983,328.378 100.856,328.000 100.856 C 327.670 100.856,327.040 101.011,326.600 101.200 M193.400 101.981 C 194.168 102.329,196.310 102.556,195.967 102.253 C 195.875 102.172,195.080 101.996,194.200 101.862 C 193.085 101.693,192.842 101.729,193.400 101.981 M205.000 102.000 C 203.911 102.277,203.893 102.307,204.800 102.325 C 205.350 102.335,206.160 102.189,206.600 102.000 C 207.586 101.576,206.666 101.576,205.000 102.000 M310.800 102.000 C 311.350 102.176,312.250 102.320,312.800 102.320 L 313.800 102.320 312.800 102.000 C 312.250 101.824,311.350 101.680,310.800 101.680 L 309.800 101.680 310.800 102.000 M322.600 102.000 C 321.522 102.274,321.502 102.306,322.400 102.313 C 322.950 102.317,323.850 102.176,324.400 102.000 C 325.744 101.569,324.292 101.569,322.600 102.000 M139.100 117.496 C 140.475 117.574,142.725 117.574,144.100 117.496 C 145.475 117.418,144.350 117.354,141.600 117.354 C 138.850 117.354,137.725 117.418,139.100 117.496 M130.912 117.895 C 131.964 117.977,133.584 117.976,134.512 117.892 C 135.440 117.808,134.580 117.741,132.600 117.742 C 130.620 117.743,129.860 117.812,130.912 117.895 M148.700 117.893 C 149.635 117.977,151.165 117.977,152.100 117.893 C 153.035 117.809,152.270 117.740,150.400 117.740 C 148.530 117.740,147.765 117.809,148.700 117.893 M119.141 118.901 C 119.343 119.103,119.933 119.201,120.454 119.119 C 121.255 118.993,121.198 118.937,120.087 118.752 C 119.293 118.621,118.919 118.679,119.141 118.901 M122.505 118.687 C 123.114 118.779,124.014 118.777,124.505 118.682 C 124.997 118.587,124.500 118.511,123.400 118.514 C 122.300 118.517,121.897 118.595,122.505 118.687 M158.105 118.687 C 158.714 118.779,159.614 118.777,160.105 118.682 C 160.597 118.587,160.100 118.511,159.000 118.514 C 157.900 118.517,157.497 118.595,158.105 118.687 M163.905 119.483 C 164.402 119.579,165.122 119.575,165.505 119.475 C 165.887 119.375,165.480 119.296,164.600 119.301 C 163.720 119.305,163.407 119.387,163.905 119.483 M176.000 122.000 C 177.368 122.438,178.419 122.438,177.400 122.000 C 176.960 121.811,176.240 121.662,175.800 121.668 C 175.157 121.677,175.196 121.743,176.000 122.000 M181.800 123.600 C 182.901 124.073,183.292 124.073,183.000 123.600 C 182.864 123.380,182.358 123.213,181.876 123.228 C 181.031 123.255,181.029 123.269,181.800 123.600 M203.633 132.149 C 204.045 132.517,206.400 133.600,206.400 133.421 C 206.400 133.190,204.182 132.000,203.753 132.000 C 203.596 132.000,203.542 132.067,203.633 132.149 M208.400 134.584 C 208.400 134.694,209.120 135.151,210.000 135.600 C 210.880 136.049,211.600 136.326,211.600 136.216 C 211.600 136.106,210.880 135.649,210.000 135.200 C 209.120 134.751,208.400 134.474,208.400 134.584 M213.811 137.739 C 215.719 139.041,216.800 139.678,216.800 139.499 C 216.800 139.245,213.704 137.200,213.320 137.200 C 213.156 137.200,213.377 137.442,213.811 137.739 M226.400 146.118 C 226.400 146.220,227.247 146.997,228.281 147.845 C 229.316 148.693,230.034 149.178,229.876 148.923 C 229.540 148.379,226.400 145.845,226.400 146.118 M230.400 149.290 C 230.400 149.377,231.435 150.328,232.700 151.403 C 233.965 152.479,234.640 152.944,234.200 152.436 C 233.364 151.471,230.400 149.017,230.400 149.290 M240.800 159.000 C 243.323 161.530,245.477 163.600,245.587 163.600 C 245.697 163.600,243.723 161.530,241.200 159.000 C 238.677 156.470,236.523 154.400,236.413 154.400 C 236.303 154.400,238.277 156.470,240.800 159.000 M248.597 167.300 C 249.672 168.565,250.623 169.600,250.710 169.600 C 250.983 169.600,248.529 166.636,247.564 165.800 C 247.056 165.360,247.521 166.035,248.597 167.300 M252.276 171.749 L 253.838 173.698 259.219 173.769 C 263.152 173.820,264.116 173.747,262.800 173.499 C 261.810 173.311,259.470 173.238,257.600 173.336 L 254.200 173.514 252.457 171.657 L 250.714 169.800 252.276 171.749 M266.433 174.144 C 266.525 174.224,267.410 174.396,268.400 174.527 C 269.602 174.686,269.934 174.647,269.400 174.410 C 268.636 174.072,266.086 173.843,266.433 174.144 M270.833 174.944 C 271.305 175.350,273.243 175.593,273.010 175.216 C 272.868 174.987,272.283 174.800,271.710 174.800 C 271.136 174.800,270.742 174.865,270.833 174.944 M284.800 179.779 C 284.800 179.889,285.340 180.259,286.000 180.600 C 286.660 180.941,287.200 181.131,287.200 181.021 C 287.200 180.911,286.660 180.541,286.000 180.200 C 285.340 179.859,284.800 179.669,284.800 179.779 M288.400 181.964 C 288.950 182.414,289.580 182.783,289.800 182.785 C 290.228 182.788,289.505 182.234,288.200 181.560 C 287.669 181.285,287.736 181.421,288.400 181.964 M292.000 184.125 C 292.000 184.224,292.661 184.809,293.468 185.425 C 294.276 186.041,294.811 186.341,294.656 186.091 C 294.340 185.579,292.000 183.847,292.000 184.125 M296.088 187.413 C 296.686 188.043,297.247 188.477,297.335 188.379 C 297.423 188.280,296.933 187.765,296.247 187.234 L 295.000 186.269 296.088 187.413 M266.000 190.400 C 266.330 190.613,267.050 190.773,267.600 190.754 L 268.600 190.720 267.600 190.400 C 266.058 189.906,265.236 189.906,266.000 190.400 M279.200 194.904 C 279.200 195.005,280.235 195.765,281.500 196.594 C 282.765 197.423,284.204 198.469,284.698 198.919 C 285.193 199.368,285.677 199.656,285.776 199.558 C 285.874 199.459,285.016 198.699,283.869 197.868 C 281.234 195.959,279.200 194.668,279.200 194.904 M301.693 196.000 C 301.693 196.770,301.775 197.085,301.876 196.700 C 301.976 196.315,301.976 195.685,301.876 195.300 C 301.775 194.915,301.693 195.230,301.693 196.000 M300.798 199.604 C 300.518 200.280,299.639 201.384,298.845 202.058 C 298.050 202.732,297.760 203.101,298.200 202.878 C 299.618 202.161,301.982 199.049,301.486 198.553 C 301.388 198.455,301.079 198.928,300.798 199.604 M286.400 200.125 C 286.400 200.194,286.985 200.779,287.700 201.425 L 289.000 202.600 287.825 201.300 C 286.730 200.088,286.400 199.816,286.400 200.125 M277.844 223.400 C 278.173 224.871,278.402 225.190,278.394 224.167 C 278.391 223.745,278.205 223.130,277.982 222.800 C 277.685 222.362,277.648 222.524,277.844 223.400 M278.662 226.600 C 278.796 227.480,278.972 228.275,279.053 228.367 C 279.356 228.710,279.129 226.568,278.781 225.800 C 278.529 225.242,278.493 225.485,278.662 226.600 M280.281 234.400 C 280.406 235.610,280.574 236.675,280.654 236.767 C 280.935 237.087,280.717 234.191,280.387 233.200 C 280.171 232.554,280.134 232.980,280.281 234.400 M281.314 241.000 C 281.317 242.100,281.395 242.503,281.487 241.895 C 281.579 241.286,281.577 240.386,281.482 239.895 C 281.387 239.403,281.311 239.900,281.314 241.000 M282.140 250.000 C 282.140 251.870,282.209 252.635,282.293 251.700 C 282.377 250.765,282.377 249.235,282.293 248.300 C 282.209 247.365,282.140 248.130,282.140 250.000 M282.553 258.200 C 282.553 260.840,282.618 261.868,282.697 260.484 C 282.775 259.101,282.774 256.941,282.695 255.684 C 282.616 254.428,282.552 255.560,282.553 258.200 M282.142 267.400 C 282.141 269.380,282.208 270.240,282.292 269.312 C 282.376 268.384,282.377 266.764,282.295 265.712 C 282.212 264.660,282.143 265.420,282.142 267.400 M281.693 273.200 C 281.693 273.970,281.775 274.285,281.876 273.900 C 281.976 273.515,281.976 272.885,281.876 272.500 C 281.775 272.115,281.693 272.430,281.693 273.200 M281.309 276.400 C 281.309 277.390,281.387 277.795,281.482 277.300 C 281.578 276.805,281.578 275.995,281.482 275.500 C 281.387 275.005,281.309 275.410,281.309 276.400 M280.800 279.776 C 280.800 280.313,280.947 280.844,281.128 280.955 C 281.308 281.067,281.377 280.627,281.282 279.979 C 281.072 278.549,280.800 278.435,280.800 279.776  M -25 0 L -5 0 L -5 20 L -25 20 Z M 405 0 L 425 0 L 425 20 L 405 20 Z" stroke="none" fill="#8b79d1" fill-rule="evenodd" transform="translate(30,460)"></path></g></svg>